<svg width="799" height="142" viewBox="0 0 799 142" fill="none" xmlns="http://www.w3.org/2000/svg">
<rect x="141.367" y="141.367" width="141.367" height="141.367" rx="70.6837" transform="rotate(-180 141.367 141.367)" fill="white"/>
<g clip-path="url(#clip0_277_165)">
<path d="M70.8328 46.9101C57.6904 46.9101 47.0316 57.5674 47.0316 70.7112C47.0316 83.855 57.689 94.5124 70.8328 94.5124C83.9767 94.5124 94.634 83.855 94.634 70.7112C94.634 57.5674 83.9752 46.9101 70.8328 46.9101Z" fill="#0407FF"/>
<path d="M34.842 64.0171C36.1768 56.8715 39.6531 50.294 44.9569 45.0413L45.0407 44.9589C45.1543 44.8481 45.2679 44.7374 45.3815 44.628C45.4894 44.5258 45.5973 44.4235 45.7053 44.3213L45.8103 44.2233C52.5924 37.9482 61.4236 34.4918 70.678 34.4904H70.6851C79.9309 34.4904 88.7579 37.9397 95.5385 44.202L95.6649 44.3199C95.7671 44.415 95.8694 44.5116 95.9702 44.6081C96.0781 44.7118 96.186 44.8155 96.294 44.922L96.3948 45.02C101.713 50.2769 105.196 56.8616 106.534 64.0157H122.371C122.157 62.3585 121.916 60.717 121.542 59.0967L121.197 57.7662C120.559 55.3123 119.73 52.8813 118.732 50.5425C116.103 44.3824 112.343 38.8513 107.549 34.0999L107.528 34.08C102.742 29.3286 97.1687 25.5967 90.9617 22.9896C88.6031 21.9998 86.1535 21.1762 83.6798 20.5457L82.3393 20.2035C78.5421 19.3429 74.6285 18.9609 70.6865 18.9609H70.6751C66.7132 18.9609 62.7812 19.3486 58.9655 20.2177L57.6236 20.5613C55.1627 21.1932 52.7273 22.0126 50.3843 22.9981C44.1787 25.6067 38.6065 29.34 33.8238 34.0942C33.5256 34.391 33.2232 34.6992 32.9264 35.0073C28.5555 39.5528 25.0921 44.7842 22.6311 50.5581C21.6329 52.8983 20.805 55.3308 20.1688 57.786L19.8237 59.1166C19.4531 60.7312 19.2131 62.3671 19.0001 64.0171H34.842Z" fill="#0407FF"/>
<path d="M122.408 77.0304H106.582C105.436 83.4092 102.575 89.4131 98.2437 94.3804L98.228 94.3988C98.1059 94.538 97.9824 94.6772 97.8603 94.8135C97.7779 94.9044 97.6955 94.9953 97.6103 95.0861C97.5606 95.1401 97.5095 95.1955 97.4598 95.248C94.0744 98.8748 90.0614 101.73 85.5358 103.738C80.8511 105.816 75.8568 106.871 70.6907 106.872H70.6837C61.2049 106.872 52.2147 103.271 45.3744 96.7334C45.2878 96.651 45.2026 96.5672 45.1159 96.4834L44.9526 96.3244C39.5707 90.9922 36.0718 84.2981 34.7809 77.0318H18.9589C19.1776 78.8126 19.4346 80.5777 19.8365 82.3172L20.183 83.6492C20.8192 86.0916 21.6456 88.5085 22.6382 90.8346C25.2667 96.9932 29.0284 102.524 33.8182 107.271C34.0553 107.506 34.3095 107.753 34.6191 108.047C39.2285 112.44 44.5394 115.918 50.4056 118.382C52.7486 119.366 55.1826 120.184 57.6435 120.814L58.9854 121.158C62.7982 122.026 66.7274 122.41 70.6851 122.41H70.695C74.6413 122.41 78.5577 122.026 82.3577 121.164L83.6983 120.82C86.1705 120.188 88.6187 119.364 90.9759 118.373C97.1673 115.77 102.728 112.05 107.504 107.313L107.586 107.244L107.612 107.206C112.376 102.467 116.119 96.9521 118.736 90.8133C119.727 88.4872 120.552 86.0703 121.187 83.6293L121.534 82.2973C121.934 80.5635 122.188 78.8055 122.407 77.0304H122.408Z" fill="#0407FF"/>
</g>
<path d="M191.955 97.6836V43.5717H211.242C215.452 43.5717 218.94 44.3379 221.706 45.8704C224.471 47.4029 226.541 49.499 227.915 52.1588C229.289 54.801 229.976 57.7778 229.976 61.0894C229.976 64.4185 229.28 67.413 227.888 70.0728C226.514 72.715 224.436 74.8111 221.653 76.3612C218.887 77.8937 215.408 78.6599 211.216 78.6599H197.952V71.7374H210.476C213.136 71.7374 215.294 71.2794 216.95 70.3634C218.605 69.4299 219.821 68.1616 220.596 66.5587C221.371 64.9558 221.758 63.1327 221.758 61.0894C221.758 59.0461 221.371 57.2318 220.596 55.6465C219.821 54.0612 218.597 52.8193 216.923 51.921C215.267 51.0227 213.083 50.5735 210.371 50.5735H200.119V97.6836H191.955ZM254.011 98.5027C250.206 98.5027 246.886 97.6308 244.05 95.8869C241.214 94.1431 239.012 91.7035 237.444 88.5681C235.877 85.4327 235.093 81.7689 235.093 77.5766C235.093 73.3667 235.877 69.6853 237.444 66.5323C239.012 63.3793 241.214 60.9308 244.05 59.187C246.886 57.4432 250.206 56.5712 254.011 56.5712C257.816 56.5712 261.136 57.4432 263.972 59.187C266.808 60.9308 269.01 63.3793 270.577 66.5323C272.145 69.6853 272.929 73.3667 272.929 77.5766C272.929 81.7689 272.145 85.4327 270.577 88.5681C269.01 91.7035 266.808 94.1431 263.972 95.8869C261.136 97.6308 257.816 98.5027 254.011 98.5027ZM254.037 91.8708C256.503 91.8708 258.547 91.2191 260.167 89.9156C261.788 88.6121 262.986 86.8771 263.761 84.7105C264.553 82.5439 264.95 80.1571 264.95 77.5502C264.95 74.9608 264.553 72.5829 263.761 70.4163C262.986 68.2321 261.788 66.4794 260.167 65.1583C258.547 63.8372 256.503 63.1767 254.037 63.1767C251.554 63.1767 249.493 63.8372 247.855 65.1583C246.234 66.4794 245.028 68.2321 244.235 70.4163C243.46 72.5829 243.072 74.9608 243.072 77.5502C243.072 80.1571 243.46 82.5439 244.235 84.7105C245.028 86.8771 246.234 88.6121 247.855 89.9156C249.493 91.2191 251.554 91.8708 254.037 91.8708ZM287.822 97.6836L275.88 57.0997H284.044L291.997 86.9035H292.393L300.373 57.0997H308.537L316.464 86.7714H316.86L324.76 57.0997H332.924L321.008 97.6836H312.95L304.706 68.3818H304.098L295.855 97.6836H287.822ZM355.19 98.5027C351.191 98.5027 347.747 97.6484 344.859 95.9398C341.988 94.2135 339.768 91.7915 338.2 88.6738C336.65 85.5384 335.875 81.8657 335.875 77.6559C335.875 73.4988 336.65 69.835 338.2 66.6644C339.768 63.4938 341.952 61.0189 344.753 59.2398C347.571 57.4608 350.865 56.5712 354.635 56.5712C356.925 56.5712 359.144 56.95 361.293 57.7074C363.442 58.4648 365.371 59.6538 367.079 61.2743C368.788 62.8949 370.136 64.9998 371.122 67.5891C372.108 70.1609 372.602 73.2874 372.602 76.9689V79.7696H340.341V73.8511H364.86C364.86 71.7726 364.437 69.9319 363.592 68.329C362.746 66.7084 361.557 65.4314 360.025 64.4978C358.51 63.5642 356.731 63.0974 354.688 63.0974C352.468 63.0974 350.531 63.6435 348.875 64.7356C347.237 65.8101 345.968 67.2192 345.07 68.9631C344.189 70.6893 343.749 72.5653 343.749 74.5909V79.2147C343.749 81.9274 344.225 84.2349 345.176 86.1373C346.145 88.0396 347.492 89.4928 349.218 90.4969C350.944 91.4833 352.961 91.9765 355.269 91.9765C356.766 91.9765 358.131 91.7651 359.364 91.3424C360.597 90.902 361.663 90.2503 362.561 89.3871C363.46 88.524 364.147 87.4584 364.622 86.1901L372.1 87.5376C371.501 89.7394 370.426 91.6682 368.876 93.324C367.344 94.9621 365.415 96.2392 363.09 97.1552C360.782 98.0535 358.149 98.5027 355.19 98.5027ZM379.879 97.6836V57.0997H387.515V63.5466H387.938C388.677 61.3624 389.981 59.645 391.848 58.3943C393.733 57.1261 395.864 56.492 398.242 56.492C398.735 56.492 399.317 56.5096 399.986 56.5448C400.673 56.5801 401.21 56.6241 401.598 56.6769V64.2336C401.281 64.1455 400.717 64.0486 399.907 63.9429C399.096 63.8196 398.286 63.758 397.476 63.758C395.609 63.758 393.944 64.1543 392.482 64.947C391.038 65.722 389.893 66.8053 389.047 68.1968C388.202 69.5708 387.779 71.1385 387.779 72.8999V97.6836H379.879ZM422.984 98.5027C418.986 98.5027 415.542 97.6484 412.653 95.9398C409.782 94.2135 407.563 91.7915 405.995 88.6738C404.445 85.5384 403.67 81.8657 403.67 77.6559C403.67 73.4988 404.445 69.835 405.995 66.6644C407.563 63.4938 409.747 61.0189 412.548 59.2398C415.366 57.4608 418.66 56.5712 422.429 56.5712C424.719 56.5712 426.939 56.95 429.088 57.7074C431.237 58.4648 433.165 59.6538 434.874 61.2743C436.583 62.8949 437.93 64.9998 438.917 67.5891C439.903 70.1609 440.396 73.2874 440.396 76.9689V79.7696H408.135V73.8511H432.655C432.655 71.7726 432.232 69.9319 431.386 68.329C430.541 66.7084 429.352 65.4314 427.819 64.4978C426.305 63.5642 424.526 63.0974 422.482 63.0974C420.263 63.0974 418.325 63.6435 416.669 64.7356C415.031 65.8101 413.763 67.2192 412.865 68.9631C411.984 70.6893 411.544 72.5653 411.544 74.5909V79.2147C411.544 81.9274 412.019 84.2349 412.97 86.1373C413.939 88.0396 415.287 89.4928 417.013 90.4969C418.739 91.4833 420.756 91.9765 423.064 91.9765C424.561 91.9765 425.926 91.7651 427.159 91.3424C428.392 90.902 429.458 90.2503 430.356 89.3871C431.254 88.524 431.941 87.4584 432.417 86.1901L439.894 87.5376C439.295 89.7394 438.221 91.6682 436.671 93.324C435.138 94.9621 433.21 96.2392 430.884 97.1552C428.577 98.0535 425.944 98.5027 422.984 98.5027ZM462.866 98.4762C459.59 98.4762 456.666 97.6396 454.094 95.9662C451.54 94.2752 449.532 91.8708 448.07 88.753C446.626 85.6176 445.903 81.8569 445.903 77.4709C445.903 73.0849 446.634 69.333 448.096 66.2152C449.576 63.0974 451.602 60.7107 454.173 59.0549C456.745 57.3991 459.66 56.5712 462.919 56.5712C465.438 56.5712 467.464 56.994 468.996 57.8395C470.546 58.6674 471.744 59.6362 472.589 60.7459C473.453 61.8556 474.122 62.8332 474.597 63.6787H475.073V43.5717H482.973V97.6836H475.258V91.3688H474.597C474.122 92.2319 473.435 93.2183 472.537 94.328C471.656 95.4377 470.44 96.4065 468.89 97.2344C467.34 98.0623 465.332 98.4762 462.866 98.4762ZM464.61 91.7387C466.882 91.7387 468.802 91.1398 470.37 89.942C471.955 88.7266 473.153 87.0444 473.963 84.8954C474.791 82.7465 475.205 80.2452 475.205 77.3916C475.205 74.5733 474.8 72.1073 473.99 69.9935C473.18 67.8798 471.991 66.2328 470.423 65.0526C468.855 63.8725 466.918 63.2824 464.61 63.2824C462.232 63.2824 460.25 63.8989 458.665 65.1319C457.08 66.3649 455.882 68.0471 455.072 70.1785C454.279 72.3098 453.883 74.7142 453.883 77.3916C453.883 80.1043 454.288 82.5439 455.098 84.7105C455.908 86.8771 457.106 88.5945 458.692 89.8627C460.294 91.1134 462.267 91.7387 464.61 91.7387ZM511.598 97.6836V43.5717H519.498V63.6787H519.973C520.431 62.8332 521.092 61.8556 521.955 60.7459C522.818 59.6362 524.016 58.6674 525.548 57.8395C527.081 56.994 529.106 56.5712 531.625 56.5712C534.902 56.5712 537.826 57.3991 540.397 59.0549C542.969 60.7107 544.986 63.0974 546.448 66.2152C547.928 69.333 548.667 73.0849 548.667 77.4709C548.667 81.8569 547.936 85.6176 546.474 88.753C545.012 91.8708 543.004 94.2752 540.45 95.9662C537.896 97.6396 534.981 98.4762 531.705 98.4762C529.238 98.4762 527.222 98.0623 525.654 97.2344C524.104 96.4065 522.888 95.4377 522.008 94.328C521.127 93.2183 520.449 92.2319 519.973 91.3688H519.313V97.6836H511.598ZM519.339 77.3916C519.339 80.2452 519.753 82.7465 520.581 84.8954C521.409 87.0444 522.607 88.7266 524.174 89.942C525.742 91.1398 527.662 91.7387 529.934 91.7387C532.295 91.7387 534.267 91.1134 535.853 89.8627C537.438 88.5945 538.636 86.8771 539.446 84.7105C540.274 82.5439 540.688 80.1043 540.688 77.3916C540.688 74.7142 540.283 72.3098 539.473 70.1785C538.68 68.0471 537.482 66.3649 535.879 65.1319C534.294 63.8989 532.312 63.2824 529.934 63.2824C527.644 63.2824 525.707 63.8725 524.121 65.0526C522.554 66.2328 521.365 67.8798 520.555 69.9935C519.744 72.1073 519.339 74.5733 519.339 77.3916ZM559.664 112.903C558.483 112.903 557.409 112.806 556.44 112.612C555.471 112.436 554.749 112.242 554.273 112.031L556.176 105.557C557.62 105.945 558.906 106.112 560.033 106.059C561.161 106.006 562.156 105.584 563.019 104.791C563.9 103.998 564.675 102.704 565.344 100.907L566.322 98.212L551.473 57.0997H559.928L570.206 88.5945H570.629L580.907 57.0997H589.388L572.663 103.1C571.888 105.214 570.902 107.002 569.704 108.464C568.506 109.943 567.079 111.053 565.424 111.793C563.768 112.533 561.848 112.903 559.664 112.903ZM611.493 50.5999V43.5717H653.371V50.5999H636.488V97.6836H628.35V50.5999H611.493ZM661.138 97.6836V43.5717H680.426C684.618 43.5717 688.097 44.2939 690.862 45.7383C693.645 47.1827 695.724 49.1819 697.098 51.7361C698.472 54.2725 699.159 57.2054 699.159 60.5345C699.159 63.8461 698.463 66.7613 697.071 69.2801C695.697 71.7814 693.619 73.7278 690.836 75.1194C688.07 76.5109 684.591 77.2067 680.399 77.2067H665.788V70.1785H679.659C682.301 70.1785 684.45 69.7998 686.106 69.0423C687.78 68.2849 689.004 67.184 689.779 65.7396C690.554 64.2952 690.941 62.5602 690.941 60.5345C690.941 58.4912 690.545 56.721 689.752 55.2237C688.977 53.7265 687.753 52.5815 686.08 51.7889C684.424 50.9786 682.249 50.5735 679.554 50.5735H669.302V97.6836H661.138ZM687.85 73.2698L701.219 97.6836H691.919L678.814 73.2698H687.85ZM742.403 43.5717H750.593V79.1619C750.593 82.949 749.704 86.3046 747.925 89.2286C746.146 92.135 743.644 94.4249 740.421 96.0983C737.198 97.7541 733.419 98.5819 729.086 98.5819C724.771 98.5819 721.001 97.7541 717.778 96.0983C714.554 94.4249 712.053 92.135 710.274 89.2286C708.495 86.3046 707.605 82.949 707.605 79.1619V43.5717H715.769V78.5014C715.769 80.9498 716.307 83.1252 717.381 85.0275C718.473 86.9299 720.015 88.4272 722.005 89.5193C723.995 90.5937 726.356 91.131 729.086 91.131C731.834 91.131 734.203 90.5937 736.194 89.5193C738.202 88.4272 739.734 86.9299 740.791 85.0275C741.865 83.1252 742.403 80.9498 742.403 78.5014V43.5717ZM760.975 97.6836V43.5717H794.531V50.5999H769.14V67.0871H792.127V74.0889H769.14V97.6836H760.975Z" fill="white"/>
<defs>
<clipPath id="clip0_277_165">
<rect width="103.453" height="103.453" fill="white" transform="translate(122.41 122.41) rotate(-180)"/>
</clipPath>
</defs>
</svg>
