<svg width="1500" height="819" viewBox="0 0 1500 819" fill="none" xmlns="http://www.w3.org/2000/svg">
<rect width="1500" height="819" fill="#F6F8FA"/>
<path d="M318.246 362.841C302.804 362.841 290.28 375.363 290.28 390.807C290.28 406.251 302.802 418.773 318.246 418.773C333.69 418.773 346.212 406.251 346.212 390.807C346.212 375.363 333.688 362.841 318.246 362.841Z" fill="#0407FF"/>
<path d="M275.958 382.942C277.526 374.546 281.611 366.817 287.843 360.646L287.941 360.549C288.074 360.419 288.208 360.288 288.341 360.16C288.468 360.04 288.595 359.92 288.722 359.8L288.845 359.684C296.814 352.311 307.19 348.25 318.064 348.249H318.072C328.936 348.249 339.307 352.301 347.274 359.659L347.423 359.798C347.543 359.91 347.663 360.023 347.782 360.137C347.908 360.258 348.035 360.38 348.162 360.505L348.28 360.621C354.529 366.797 358.622 374.534 360.194 382.94H378.802C378.55 380.993 378.267 379.064 377.828 377.16L377.422 375.597C376.673 372.714 375.699 369.857 374.526 367.109C371.438 359.871 367.019 353.373 361.387 347.79L361.361 347.766C355.739 342.184 349.19 337.799 341.897 334.735C339.125 333.573 336.247 332.605 333.341 331.864L331.766 331.462C327.304 330.451 322.706 330.002 318.074 330.002H318.061C313.406 330.002 308.785 330.457 304.302 331.479L302.725 331.882C299.834 332.625 296.973 333.588 294.22 334.745C286.928 337.811 280.381 342.197 274.761 347.783C274.411 348.132 274.056 348.494 273.707 348.856C268.571 354.197 264.502 360.344 261.61 367.128C260.437 369.877 259.465 372.735 258.717 375.62L258.312 377.184C257.876 379.081 257.594 381.003 257.344 382.942H275.958Z" fill="#0407FF"/>
<path d="M378.846 398.232H360.25C358.904 405.727 355.542 412.781 350.453 418.618L350.434 418.639C350.291 418.803 350.146 418.966 350.002 419.126C349.906 419.233 349.809 419.34 349.709 419.447C349.65 419.51 349.59 419.575 349.532 419.637C345.554 423.898 340.839 427.254 335.521 429.613C330.017 432.054 324.149 433.294 318.079 433.295H318.071C306.933 433.295 296.37 429.064 288.333 421.382C288.231 421.285 288.131 421.187 288.029 421.089L287.837 420.902C281.514 414.636 277.403 406.771 275.886 398.234H257.296C257.553 400.326 257.855 402.4 258.327 404.444L258.734 406.009C259.481 408.879 260.452 411.718 261.619 414.451C264.707 421.688 269.127 428.186 274.755 433.764C275.033 434.039 275.332 434.33 275.696 434.675C281.112 439.837 287.352 443.924 294.245 446.818C296.998 447.975 299.857 448.936 302.749 449.677L304.326 450.08C308.805 451.1 313.422 451.552 318.072 451.552H318.084C322.721 451.552 327.322 451.1 331.787 450.087L333.362 449.683C336.267 448.941 339.144 447.973 341.913 446.808C349.188 443.75 355.722 439.379 361.333 433.813L361.43 433.732L361.46 433.687C367.058 428.12 371.456 421.639 374.531 414.426C375.696 411.693 376.665 408.853 377.411 405.985L377.818 404.42C378.288 402.383 378.587 400.317 378.844 398.232H378.846Z" fill="#0407FF"/>
<path d="M410.385 367.286V352.173H475.461V367.286H452.115V429.167H433.769V367.286H410.385Z" fill="#090909"/>
<path d="M482.432 429.167V352.173H514.237C520.002 352.173 524.977 353.213 529.162 355.294C533.373 357.349 536.618 360.306 538.899 364.166C541.18 368.001 542.32 372.549 542.32 377.813C542.32 383.151 541.155 387.688 538.824 391.422C536.493 395.131 533.185 397.963 528.899 399.918C524.613 401.848 519.538 402.813 513.673 402.813H493.56V388.151H510.215C513.022 388.151 515.365 387.788 517.245 387.061C519.15 386.309 520.591 385.181 521.568 383.677C522.546 382.149 523.034 380.194 523.034 377.813C523.034 375.432 522.546 373.464 521.568 371.91C520.591 370.331 519.15 369.153 517.245 368.376C515.34 367.574 512.997 367.173 510.215 367.173H501.042V429.167H482.432ZM525.779 393.978L544.952 429.167H524.651L505.854 393.978H525.779Z" fill="#090909"/>
<path d="M596.99 352.173H615.561V401.836C615.561 407.575 614.195 412.575 611.463 416.836C608.732 421.071 604.922 424.355 600.035 426.686C595.147 428.991 589.471 430.144 583.004 430.144C576.463 430.144 570.749 428.991 565.861 426.686C560.974 424.355 557.177 421.071 554.47 416.836C551.763 412.575 550.41 407.575 550.41 401.836V352.173H569.019V400.219C569.019 402.876 569.596 405.244 570.749 407.324C571.926 409.405 573.568 411.034 575.673 412.212C577.779 413.39 580.222 413.979 583.004 413.979C585.786 413.979 588.217 413.39 590.298 412.212C592.403 411.034 594.045 409.405 595.223 407.324C596.401 405.244 596.99 402.876 596.99 400.219V352.173Z" fill="#090909"/>
<path d="M625.108 429.167V352.173H677.665V367.286H643.717V383.076H674.319V398.227H643.717V429.167H625.108Z" fill="#090909"/>
<path d="M691.638 430.257C688.931 430.257 686.613 429.305 684.683 427.4C682.778 425.495 681.838 423.189 681.863 420.482C681.838 417.826 682.778 415.558 684.683 413.678C686.613 411.773 688.931 410.821 691.638 410.821C694.194 410.821 696.45 411.773 698.405 413.678C700.385 415.558 701.387 417.826 701.412 420.482C701.387 422.287 700.911 423.929 699.984 425.407C699.082 426.886 697.891 428.064 696.412 428.941C694.959 429.818 693.367 430.257 691.638 430.257Z" fill="#090909"/>
<path d="M776.965 352.173V429.167H761.176L730.536 384.73H730.047V429.167H711.438V352.173H727.453L757.755 396.535H758.394V352.173H776.965Z" fill="#090909"/>
<path d="M786.549 429.167V352.173H840.234V367.286H805.159V383.076H837.49V398.227H805.159V414.054H840.234V429.167H786.549Z" fill="#090909"/>
<path d="M847.252 367.286V352.173H912.328V367.286H888.982V429.167H870.636V367.286H847.252Z" fill="#090909"/>
<path d="M937.759 429.167L915.352 352.173H935.916L947.533 402.625H948.172L961.443 352.173H978.21L991.481 402.738H992.12L1003.77 352.173H1024.3L1001.93 429.167H984L970.127 382.474H969.526L955.654 429.167H937.759Z" fill="#090909"/>
<path d="M1097.99 390.67C1097.99 399.141 1096.36 406.322 1093.11 412.212C1089.85 418.101 1085.44 422.575 1079.87 425.633C1074.33 428.691 1068.12 430.219 1061.23 430.219C1054.31 430.219 1048.08 428.678 1042.54 425.595C1037 422.513 1032.6 418.039 1029.35 412.174C1026.11 406.284 1024.5 399.116 1024.5 390.67C1024.5 382.199 1026.11 375.018 1029.35 369.128C1032.6 363.239 1037 358.765 1042.54 355.707C1048.08 352.649 1054.31 351.121 1061.23 351.121C1068.12 351.121 1074.33 352.649 1079.87 355.707C1085.44 358.765 1089.85 363.239 1093.11 369.128C1096.36 375.018 1097.99 382.199 1097.99 390.67ZM1078.97 390.67C1078.97 385.657 1078.26 381.422 1076.83 377.963C1075.42 374.504 1073.39 371.885 1070.74 370.106C1068.11 368.326 1064.94 367.437 1061.23 367.437C1057.54 367.437 1054.37 368.326 1051.71 370.106C1049.06 371.885 1047.01 374.504 1045.59 377.963C1044.18 381.422 1043.48 385.657 1043.48 390.67C1043.48 395.683 1044.18 399.918 1045.59 403.377C1047.01 406.836 1049.06 409.455 1051.71 411.234C1054.37 413.014 1057.54 413.903 1061.23 413.903C1064.94 413.903 1068.11 413.014 1070.74 411.234C1073.39 409.455 1075.42 406.836 1076.83 403.377C1078.26 399.918 1078.97 395.683 1078.97 390.67Z" fill="#090909"/>
<path d="M1106.74 429.167V352.173H1138.55C1144.31 352.173 1149.29 353.213 1153.47 355.294C1157.68 357.349 1160.93 360.306 1163.21 364.166C1165.49 368.001 1166.63 372.549 1166.63 377.813C1166.63 383.151 1165.46 387.688 1163.13 391.422C1160.8 395.131 1157.49 397.963 1153.21 399.918C1148.92 401.848 1143.85 402.813 1137.98 402.813H1117.87V388.151H1134.52C1137.33 388.151 1139.67 387.788 1141.55 387.061C1143.46 386.309 1144.9 385.181 1145.88 383.677C1146.85 382.149 1147.34 380.194 1147.34 377.813C1147.34 375.432 1146.85 373.464 1145.88 371.91C1144.9 370.331 1143.46 369.153 1141.55 368.376C1139.65 367.574 1137.3 367.173 1134.52 367.173H1125.35V429.167H1106.74ZM1150.09 393.978L1169.26 429.167H1148.96L1130.16 393.978H1150.09Z" fill="#090909"/>
<path d="M1174.72 429.167V352.173H1193.33V384.73H1194.34L1219.79 352.173H1241.71L1214.42 386.535L1242.2 429.167H1219.94L1200.77 398.903L1193.33 408.302V429.167H1174.72Z" fill="#090909"/>
</svg>
