<svg width="1500" height="819" viewBox="0 0 1500 819" fill="none" xmlns="http://www.w3.org/2000/svg">
<g clip-path="url(#clip0_361_286)">
<path d="M1500 0H0V819H1500V0Z" fill="#F6F8FA"/>
<path d="M317.82 360.954C302.412 360.954 289.917 373.52 289.917 389.017C289.917 404.515 302.411 417.08 317.82 417.08C333.229 417.08 345.723 404.515 345.723 389.017C345.723 373.52 333.227 360.954 317.82 360.954Z" fill="#0407FF"/>
<path d="M275.626 381.125C277.191 372.699 281.266 364.944 287.484 358.751L287.583 358.653C287.716 358.523 287.849 358.392 287.982 358.263C288.109 358.143 288.235 358.022 288.362 357.902L288.485 357.786C296.436 350.387 306.789 346.312 317.638 346.31H317.646C328.486 346.31 338.834 350.377 346.783 357.761L346.931 357.9C347.051 358.012 347.171 358.126 347.289 358.24C347.416 358.362 347.542 358.484 347.669 358.61L347.787 358.725C354.021 364.924 358.105 372.688 359.673 381.123H378.24C377.989 379.169 377.706 377.233 377.268 375.323L376.864 373.754C376.116 370.861 375.144 367.995 373.974 365.237C370.892 357.974 366.484 351.452 360.864 345.85L360.839 345.826C355.228 340.224 348.694 335.824 341.418 332.75C338.652 331.583 335.781 330.612 332.881 329.869L331.309 329.465C326.858 328.45 322.269 328 317.648 328H317.635C312.99 328 308.38 328.457 303.907 329.482L302.334 329.887C299.449 330.632 296.594 331.598 293.847 332.76C286.572 335.836 280.04 340.238 274.433 345.843C274.083 346.193 273.728 346.556 273.38 346.92C268.256 352.279 264.196 358.447 261.311 365.255C260.141 368.015 259.17 370.883 258.424 373.778L258.02 375.346C257.585 377.25 257.304 379.179 257.054 381.125H275.626Z" fill="#0407FF"/>
<path d="M378.284 396.468H359.73C358.386 403.989 355.032 411.068 349.954 416.925L349.936 416.947C349.793 417.111 349.648 417.275 349.505 417.436C349.408 417.543 349.312 417.65 349.212 417.757C349.154 417.821 349.094 417.886 349.035 417.948C345.067 422.224 340.362 425.591 335.057 427.959C329.564 430.408 323.709 431.652 317.653 431.654H317.645C306.532 431.654 295.993 427.408 287.974 419.699C287.872 419.602 287.772 419.503 287.671 419.405L287.479 419.217C281.17 412.93 277.068 405.037 275.555 396.47H257.006C257.262 398.569 257.564 400.651 258.035 402.702L258.441 404.272C259.187 407.152 260.156 410.002 261.319 412.744C264.401 420.006 268.811 426.527 274.426 432.124C274.704 432.401 275.002 432.692 275.365 433.039C280.769 438.219 286.995 442.319 293.872 445.224C296.619 446.385 299.472 447.349 302.357 448.092L303.93 448.498C308.4 449.521 313.007 449.974 317.646 449.974H317.658C322.284 449.974 326.876 449.521 331.331 448.504L332.902 448.099C335.801 447.354 338.671 446.383 341.434 445.214C348.692 442.145 355.212 437.758 360.81 432.173L360.907 432.093L360.937 432.047C366.522 426.46 370.91 419.957 373.979 412.719C375.141 409.977 376.108 407.127 376.852 404.249L377.258 402.678C377.728 400.634 378.026 398.561 378.282 396.468H378.284Z" fill="#0407FF"/>
<path d="M409.752 365.414V350.249H474.683V365.414H451.389V427.511H433.084V365.414H409.752Z" fill="#090909"/>
<path d="M481.638 427.511V350.249H513.372C519.123 350.249 524.087 351.292 528.263 353.38C532.465 355.442 535.703 358.41 537.979 362.283C540.254 366.131 541.392 370.696 541.392 375.978C541.392 381.335 540.229 385.887 537.904 389.634C535.578 393.357 532.277 396.199 528.001 398.16C523.725 400.097 518.661 401.065 512.809 401.065H492.741V386.352H509.358C512.159 386.352 514.497 385.987 516.373 385.258C518.273 384.504 519.711 383.372 520.686 381.863C521.662 380.329 522.149 378.367 522.149 375.978C522.149 373.588 521.662 371.614 520.686 370.055C519.711 368.47 518.273 367.288 516.373 366.508C514.472 365.704 512.134 365.301 509.358 365.301H500.206V427.511H481.638ZM524.888 392.2L544.018 427.511H523.762L505.007 392.2H524.888Z" fill="#090909"/>
<path d="M595.939 350.249H614.469V400.084C614.469 405.844 613.106 410.861 610.38 415.137C607.655 419.387 603.853 422.682 598.977 425.021C594.101 427.335 588.437 428.492 581.985 428.492C575.458 428.492 569.757 427.335 564.88 425.021C560.004 422.682 556.215 419.387 553.515 415.137C550.814 410.861 549.464 405.844 549.464 400.084V350.249H568.031V398.462C568.031 401.128 568.606 403.505 569.757 405.592C570.932 407.68 572.57 409.315 574.67 410.497C576.771 411.679 579.209 412.27 581.985 412.27C584.761 412.27 587.186 411.679 589.262 410.497C591.363 409.315 593.001 407.68 594.176 405.592C595.351 403.505 595.939 401.128 595.939 398.462V350.249Z" fill="#090909"/>
<path d="M623.994 427.511V350.249H676.433V365.414H642.561V381.259H673.095V396.463H642.561V427.511H623.994Z" fill="#090909"/>
<path d="M690.375 428.605C687.674 428.605 685.361 427.649 683.436 425.738C681.535 423.827 680.597 421.513 680.622 418.796C680.597 416.13 681.535 413.854 683.436 411.968C685.361 410.057 687.674 409.101 690.375 409.101C692.926 409.101 695.176 410.057 697.127 411.968C699.103 413.854 700.103 416.13 700.128 418.796C700.103 420.607 699.628 422.255 698.702 423.738C697.802 425.222 696.614 426.404 695.139 427.285C693.689 428.165 692.101 428.605 690.375 428.605Z" fill="#090909"/>
<path d="M775.511 350.249V427.511H759.757L729.186 382.919H728.699V427.511H710.131V350.249H726.11L756.344 394.765H756.981V350.249H775.511Z" fill="#090909"/>
<path d="M785.074 427.511V350.249H838.639V365.414H803.642V381.259H835.9V396.463H803.642V412.345H838.639V427.511H785.074Z" fill="#090909"/>
<path d="M845.641 365.414V350.249H910.571V365.414H887.278V427.511H868.973V365.414H845.641Z" fill="#090909"/>
<path d="M935.945 427.511L913.588 350.249H934.107L945.697 400.877H946.335L959.576 350.249H976.306L989.547 400.99H990.184L1001.81 350.249H1022.29L999.975 427.511H982.082L968.241 380.656H967.641L953.8 427.511H935.945Z" fill="#090909"/>
<path d="M1095.82 388.88C1095.82 397.381 1094.19 404.586 1090.94 410.497C1087.69 416.407 1083.29 420.896 1077.74 423.965C1072.21 427.033 1066.01 428.567 1059.13 428.567C1052.23 428.567 1046.02 427.021 1040.49 423.927C1034.97 420.833 1030.58 416.344 1027.33 410.459C1024.1 404.549 1022.49 397.356 1022.49 388.88C1022.49 380.379 1024.1 373.173 1027.33 367.263C1030.58 361.353 1034.97 356.863 1040.49 353.795C1046.02 350.726 1052.23 349.192 1059.13 349.192C1066.01 349.192 1072.21 350.726 1077.74 353.795C1083.29 356.863 1087.69 361.353 1090.94 367.263C1094.19 373.173 1095.82 380.379 1095.82 388.88ZM1076.84 388.88C1076.84 383.85 1076.13 379.599 1074.7 376.128C1073.3 372.658 1071.28 370.029 1068.62 368.244C1066 366.458 1062.84 365.565 1059.13 365.565C1055.46 365.565 1052.3 366.458 1049.64 368.244C1046.99 370.029 1044.96 372.658 1043.53 376.128C1042.13 379.599 1041.43 383.85 1041.43 388.88C1041.43 393.91 1042.13 398.16 1043.53 401.631C1044.96 405.102 1046.99 407.73 1049.64 409.516C1052.3 411.301 1055.46 412.194 1059.13 412.194C1062.84 412.194 1066 411.301 1068.62 409.516C1071.28 407.73 1073.3 405.102 1074.7 401.631C1076.13 398.16 1076.84 393.91 1076.84 388.88Z" fill="#090909"/>
<path d="M1104.55 427.511V350.249H1136.28C1142.03 350.249 1147 351.292 1151.17 353.38C1155.37 355.442 1158.61 358.41 1160.89 362.283C1163.16 366.131 1164.3 370.696 1164.3 375.978C1164.3 381.335 1163.14 385.887 1160.81 389.634C1158.49 393.357 1155.19 396.199 1150.91 398.16C1146.63 400.097 1141.57 401.065 1135.72 401.065H1115.65V386.352H1132.27C1135.07 386.352 1137.41 385.987 1139.28 385.258C1141.18 384.504 1142.62 383.372 1143.6 381.863C1144.57 380.329 1145.06 378.367 1145.06 375.978C1145.06 373.588 1144.57 371.614 1143.6 370.055C1142.62 368.47 1141.18 367.288 1139.28 366.508C1137.38 365.704 1135.04 365.301 1132.27 365.301H1123.12V427.511H1104.55ZM1147.8 392.2L1166.93 427.511H1146.67L1127.92 392.2H1147.8Z" fill="#090909"/>
<path d="M1172.37 427.511V350.249H1190.94V382.919H1191.95L1217.35 350.249H1239.22L1211.98 384.73L1239.7 427.511H1217.5L1198.37 397.142L1190.94 406.573V427.511H1172.37Z" fill="#090909"/>
<path d="M413.501 467.078H981.947" stroke="url(#paint0_linear_361_286)" stroke-width="4.6028"/>
<path d="M991.153 483.083V452.119H996.626V463.701H996.853C997.135 463.136 997.533 462.536 998.047 461.901C998.561 461.256 999.257 460.707 1000.13 460.253C1001.01 459.79 1002.13 459.558 1003.49 459.558C1005.28 459.558 1006.9 460.016 1008.34 460.934C1009.79 461.841 1010.94 463.186 1011.79 464.971C1012.65 466.745 1013.08 468.922 1013.08 471.502C1013.08 474.052 1012.66 476.219 1011.82 478.003C1010.98 479.787 1009.84 481.148 1008.4 482.086C1006.96 483.023 1005.33 483.492 1003.5 483.492C1002.17 483.492 1001.07 483.27 1000.19 482.826C999.317 482.383 998.612 481.849 998.077 481.224C997.553 480.589 997.145 479.989 996.853 479.425H996.535V483.083H991.153ZM996.52 471.472C996.52 472.974 996.732 474.289 997.155 475.418C997.589 476.547 998.209 477.429 999.015 478.064C999.831 478.689 1000.82 479.001 1001.98 479.001C1003.19 479.001 1004.2 478.679 1005.02 478.034C1005.83 477.378 1006.45 476.486 1006.86 475.357C1007.28 474.219 1007.5 472.923 1007.5 471.472C1007.5 470.03 1007.29 468.75 1006.88 467.632C1006.46 466.513 1005.85 465.636 1005.03 465.001C1004.22 464.366 1003.2 464.048 1001.98 464.048C1000.81 464.048 999.816 464.356 999 464.971C998.183 465.585 997.563 466.447 997.14 467.556C996.727 468.665 996.52 469.97 996.52 471.472Z" fill="#090909"/>
<path d="M1020.34 491.792C1019.59 491.792 1018.9 491.732 1018.27 491.611C1017.64 491.5 1017.14 491.369 1016.77 491.218L1018.04 486.954C1018.84 487.186 1019.55 487.297 1020.17 487.287C1020.8 487.277 1021.35 487.08 1021.82 486.697C1022.31 486.324 1022.71 485.699 1023.05 484.822L1023.52 483.567L1015.09 459.86H1020.9L1026.25 477.399H1026.49L1031.86 459.86H1037.68L1028.38 485.896C1027.95 487.125 1027.38 488.179 1026.66 489.056C1025.94 489.943 1025.07 490.618 1024.03 491.082C1023 491.555 1021.77 491.792 1020.34 491.792Z" fill="#090909"/>
<mask id="mask0_361_286" style="mask-type:luminance" maskUnits="userSpaceOnUse" x="1046" y="450" width="192" height="34">
<path d="M1237.67 450.165H1046.39V483.991H1237.67V450.165Z" fill="white"/>
</mask>
<g mask="url(#mask0_361_286)">
<path d="M1160.13 483.488H1155.66C1155.53 482.362 1155.4 481.244 1155.27 480.081C1155.2 480.144 1155.16 480.173 1155.13 480.212C1153.76 482.281 1151.78 483.405 1149.38 483.823C1143.54 484.843 1138.16 481.108 1137 475.218C1136.4 472.183 1136.54 469.196 1137.88 466.361C1139.44 463.079 1142.04 461.071 1145.62 460.429C1148.39 459.93 1151.03 460.355 1153.32 462.115C1153.95 462.601 1154.44 463.269 1154.99 463.857C1155.08 463.951 1155.15 464.062 1155.27 464.232C1155.42 463.131 1155.56 462.109 1155.7 461.087C1155.72 460.917 1155.71 460.734 1155.98 460.735C1157.35 460.742 1158.72 460.738 1160.13 460.738V483.488H1160.13ZM1155.27 472.026C1155.24 471.694 1155.2 471.235 1155.14 470.782C1154.55 466.753 1150.97 464.456 1147.69 464.937C1145.32 465.285 1143.58 466.492 1142.53 468.63C1141.71 470.275 1141.64 472.019 1141.93 473.807C1142.7 478.651 1148.3 481.047 1152.31 478.231C1154.42 476.76 1155.21 474.629 1155.27 472.024V472.026Z" fill="#090909"/>
<path d="M1213.06 472.187C1213.02 478.979 1207.9 484.024 1201.06 483.987C1194.28 483.95 1189.2 478.82 1189.24 472.051C1189.27 465.289 1194.45 460.211 1201.26 460.253C1207.98 460.294 1213.09 465.461 1213.06 472.187ZM1207.98 471.822C1207.88 471.309 1207.81 470.353 1207.51 469.472C1206.65 466.922 1204.88 465.327 1202.19 464.928C1199.66 464.552 1197.48 465.304 1195.88 467.358C1194.27 469.42 1193.98 471.801 1194.61 474.265C1195.99 479.714 1201.95 480.644 1205.28 478.018C1207.14 476.554 1207.9 474.558 1207.98 471.822Z" fill="#090909"/>
<path d="M1221.8 483.485H1216.74V460.768H1221.23C1221.37 461.879 1221.51 463.007 1221.66 464.209C1221.92 463.864 1222.13 463.561 1222.36 463.277C1223.74 461.588 1225.56 460.663 1227.69 460.352C1229.73 460.055 1231.68 460.36 1233.47 461.408C1235.61 462.665 1236.81 464.615 1237.32 466.995C1237.53 467.976 1237.65 468.997 1237.66 470C1237.69 474.385 1237.67 478.771 1237.67 483.158C1237.67 483.252 1237.66 483.344 1237.66 483.469H1232.53V482.939C1232.53 479.038 1232.54 475.139 1232.53 471.239C1232.53 470.186 1232.43 469.148 1232.09 468.134C1230.96 464.848 1227.29 464.081 1224.78 465.66C1222.67 466.992 1221.82 469.003 1221.81 471.423C1221.79 475.269 1221.8 479.116 1221.8 482.962V483.485Z" fill="#090909"/>
<path d="M1105.69 483.489H1101.21C1101.07 482.354 1100.92 481.225 1100.77 479.998C1100.61 480.219 1100.51 480.377 1100.39 480.533C1098.46 483.196 1095.78 484.223 1092.59 483.928C1088.5 483.549 1085.83 480.671 1085.17 476.663C1085.02 475.764 1084.97 474.838 1084.96 473.924C1084.94 469.699 1084.95 465.475 1084.95 461.25C1084.95 461.093 1084.95 460.936 1084.95 460.758H1090.1C1090.1 460.93 1090.1 461.087 1090.1 461.244C1090.1 465.212 1090.1 469.179 1090.1 473.148C1090.1 474.248 1090.22 475.322 1090.62 476.359C1091.78 479.359 1095.29 480.144 1097.69 478.592C1099.74 477.267 1100.6 475.294 1100.62 472.921C1100.64 469.439 1100.62 465.958 1100.62 462.475C1100.62 461.911 1100.62 461.347 1100.62 460.761H1105.69V483.489Z" fill="#090909"/>
<path d="M1061.83 483.479H1056.62V455.324H1046.39V450.482H1072.01V455.295H1061.83V483.479H1061.83Z" fill="#090909"/>
<path d="M1113.03 464.971H1108.6V460.741H1113C1113 459.915 1113 459.136 1113 458.357C1113 456.481 1113.41 454.717 1114.5 453.157C1115.63 451.531 1117.23 450.63 1119.16 450.3C1120.53 450.065 1121.9 450.147 1123.25 450.453C1123.37 450.481 1123.56 450.63 1123.56 450.724C1123.58 452.018 1123.57 453.311 1123.57 454.663C1123.38 454.647 1123.23 454.616 1123.08 454.623C1122.23 454.667 1121.37 454.618 1120.55 454.79C1119.15 455.085 1118.26 456.194 1118.14 457.73C1118.07 458.707 1118.13 459.695 1118.13 460.73H1124.48V464.951H1118.11V483.472H1113.02V464.971H1113.03Z" fill="#090909"/>
<path d="M1166.68 464.968H1162.6V460.756H1166.62V453.147H1171.76V460.733H1178.4V464.956H1171.83C1171.8 465.071 1171.77 465.147 1171.77 465.223C1171.78 468.651 1171.78 472.079 1171.8 475.506C1171.8 476.311 1171.95 477.094 1172.4 477.784C1172.96 478.663 1173.85 479.02 1174.83 479.11C1175.75 479.196 1176.69 479.175 1177.62 479.201C1177.72 479.204 1177.83 479.201 1177.96 479.201V483.388C1176.95 483.661 1175.92 483.816 1174.87 483.831C1173.12 483.855 1171.46 483.502 1169.99 482.523C1168.11 481.276 1167.11 479.465 1166.8 477.262C1166.71 476.624 1166.69 475.971 1166.68 475.326C1166.67 472.061 1166.68 468.795 1166.68 465.528V464.963L1166.68 464.968Z" fill="#090909"/>
<path d="M1127.78 450.464H1132.82V483.468H1127.78V450.464Z" fill="#090909"/>
<path d="M1081.67 465.265C1080.81 465.265 1079.99 465.222 1079.17 465.274C1076.86 465.421 1075.48 466.809 1075.28 469.137C1075.23 469.701 1075.2 470.268 1075.2 470.833C1075.19 474.881 1075.2 478.929 1075.2 482.977C1075.2 483.136 1075.2 483.294 1075.2 483.477H1070.09C1070.09 483.337 1070.09 483.196 1070.09 483.053C1070.09 478.398 1070.06 473.742 1070.1 469.088C1070.12 466.73 1070.8 464.564 1072.46 462.802C1073.85 461.323 1075.61 460.583 1077.6 460.336C1078.84 460.182 1080.07 460.257 1081.3 460.495C1081.58 460.548 1081.71 460.639 1081.7 460.96C1081.68 462.269 1081.69 463.578 1081.69 464.886C1081.69 464.992 1081.68 465.099 1081.67 465.267V465.265Z" fill="#090909"/>
<path d="M1181.22 460.753H1186.26V483.475H1181.22V460.753Z" fill="#090909"/>
<path d="M1180.47 453.436C1180.46 451.63 1181.9 450.212 1183.75 450.209C1185.58 450.206 1187.02 451.667 1187.01 453.512C1187 455.234 1185.55 456.656 1183.78 456.679C1181.93 456.703 1180.48 455.274 1180.47 453.436Z" fill="#090909"/>
</g>
</g>
<defs>
<linearGradient id="paint0_linear_361_286" x1="nan" y1="nan" x2="nan" y2="nan" gradientUnits="userSpaceOnUse">
<stop stop-color="#090909" stop-opacity="0"/>
<stop offset="1" stop-color="#090909"/>
</linearGradient>
<clipPath id="clip0_361_286">
<rect width="1500" height="819" fill="white"/>
</clipPath>
</defs>
</svg>
