<svg width="1500" height="820" viewBox="0 0 1500 820" fill="none" xmlns="http://www.w3.org/2000/svg">
<g clip-path="url(#clip0_361_335)">
<path d="M1500 0.5H0V819.5H1500V0.5Z" fill="white"/>
<path d="M318.814 360.454C303.406 360.454 290.911 373.02 290.911 388.517C290.911 404.015 303.405 416.581 318.814 416.581C334.223 416.581 346.717 404.015 346.717 388.517C346.717 373.02 334.221 360.454 318.814 360.454Z" fill="#090909"/>
<path d="M276.62 380.625C278.185 372.199 282.261 364.444 288.478 358.251L288.577 358.153C288.71 358.023 288.843 357.892 288.976 357.763C289.103 357.643 289.229 357.522 289.356 357.402L289.479 357.286C297.43 349.887 307.783 345.812 318.632 345.81H318.641C329.48 345.81 339.828 349.877 347.777 357.261L347.925 357.4C348.045 357.512 348.165 357.626 348.283 357.74C348.41 357.862 348.536 357.984 348.663 358.11L348.781 358.225C355.016 364.424 359.099 372.188 360.667 380.623H379.234C378.983 378.669 378.7 376.733 378.262 374.823L377.858 373.254C377.11 370.361 376.138 367.495 374.968 364.737C371.886 357.474 367.478 350.952 361.858 345.35L361.833 345.326C356.223 339.724 349.688 335.324 342.412 332.25C339.647 331.083 336.775 330.112 333.875 329.369L332.303 328.965C327.852 327.95 323.264 327.5 318.642 327.5H318.629C313.984 327.5 309.375 327.957 304.901 328.982L303.328 329.387C300.443 330.132 297.588 331.098 294.841 332.26C287.566 335.336 281.034 339.738 275.427 345.343C275.077 345.693 274.723 346.056 274.375 346.42C269.251 351.779 265.19 357.947 262.305 364.755C261.135 367.515 260.164 370.383 259.418 373.278L259.014 374.846C258.579 376.75 258.298 378.679 258.048 380.625H276.62Z" fill="#090909"/>
<path d="M379.278 395.968H360.724C359.381 403.489 356.026 410.568 350.949 416.425L350.93 416.447C350.787 416.611 350.642 416.775 350.499 416.936C350.403 417.043 350.306 417.15 350.206 417.257C350.148 417.321 350.088 417.386 350.03 417.448C346.061 421.724 341.356 425.091 336.051 427.459C330.558 429.908 324.704 431.152 318.647 431.154H318.639C307.527 431.154 296.987 426.908 288.968 419.199C288.866 419.102 288.766 419.003 288.665 418.905L288.473 418.717C282.164 412.43 278.062 404.537 276.549 395.97H258C258.256 398.069 258.558 400.15 259.029 402.202L259.435 403.772C260.181 406.652 261.15 409.502 262.313 412.244C265.395 419.506 269.805 426.027 275.42 431.624C275.698 431.901 275.996 432.192 276.359 432.539C281.763 437.719 287.989 441.819 294.866 444.724C297.613 445.885 300.466 446.849 303.351 447.592L304.925 447.998C309.394 449.021 314.001 449.474 318.64 449.474H318.652C323.279 449.474 327.87 449.021 332.325 448.004L333.896 447.599C336.795 446.854 339.665 445.883 342.428 444.714C349.687 441.645 356.206 437.258 361.804 431.673L361.901 431.593L361.931 431.547C367.516 425.96 371.905 419.457 374.973 412.219C376.135 409.476 377.102 406.627 377.846 403.749L378.252 402.178C378.722 400.134 379.02 398.061 379.276 395.968H379.278Z" fill="#090909"/>
<path d="M410.746 364.914V349.749H475.677V364.914H452.383V427.011H434.078V364.914H410.746Z" fill="#090909"/>
<path d="M482.632 427.011V349.749H514.366C520.118 349.749 525.081 350.792 529.258 352.88C533.459 354.942 536.697 357.91 538.973 361.783C541.248 365.631 542.386 370.196 542.386 375.478C542.386 380.835 541.223 385.387 538.898 389.134C536.572 392.857 533.271 395.699 528.995 397.66C524.719 399.597 519.655 400.565 513.803 400.565H493.735V385.852H510.352C513.153 385.852 515.491 385.488 517.367 384.758C519.267 384.004 520.705 382.872 521.681 381.363C522.656 379.829 523.143 377.867 523.143 375.478C523.143 373.088 522.656 371.114 521.681 369.555C520.705 367.97 519.267 366.788 517.367 366.009C515.466 365.204 513.128 364.801 510.352 364.801H501.2V427.011H482.632ZM525.882 391.7L545.012 427.011H524.756L506.001 391.7H525.882Z" fill="#090909"/>
<path d="M596.933 349.749H615.463V399.584C615.463 405.344 614.1 410.361 611.374 414.637C608.649 418.887 604.848 422.182 599.971 424.521C595.095 426.835 589.431 427.992 582.979 427.992C576.452 427.992 570.751 426.835 565.874 424.521C560.998 422.182 557.21 418.887 554.509 414.637C551.808 410.361 550.458 405.344 550.458 399.584V349.749H569.025V397.962C569.025 400.628 569.6 403.005 570.751 405.092C571.926 407.18 573.564 408.815 575.665 409.997C577.765 411.179 580.203 411.77 582.979 411.77C585.755 411.77 588.181 411.179 590.256 409.997C592.357 408.815 593.995 407.18 595.17 405.092C596.345 403.005 596.933 400.628 596.933 397.962V349.749Z" fill="#090909"/>
<path d="M624.988 427.011V349.749H677.427V364.914H643.556V380.759H674.089V395.963H643.556V427.011H624.988Z" fill="#090909"/>
<path d="M691.369 428.105C688.669 428.105 686.355 427.149 684.43 425.238C682.529 423.327 681.592 421.013 681.617 418.296C681.592 415.63 682.529 413.354 684.43 411.468C686.355 409.557 688.669 408.601 691.369 408.601C693.92 408.601 696.171 409.557 698.121 411.468C700.097 413.354 701.097 415.63 701.122 418.296C701.097 420.107 700.622 421.755 699.697 423.238C698.796 424.722 697.608 425.904 696.133 426.785C694.683 427.665 693.095 428.105 691.369 428.105Z" fill="#090909"/>
<path d="M776.506 349.749V427.011H760.751L730.18 382.419H729.693V427.011H711.125V349.749H727.105L757.338 394.265H757.976V349.749H776.506Z" fill="#090909"/>
<path d="M786.068 427.011V349.749H839.633V364.914H804.636V380.759H836.895V395.963H804.636V411.845H839.633V427.011H786.068Z" fill="#090909"/>
<path d="M846.635 364.914V349.749H911.566V364.914H888.272V427.011H869.967V364.914H846.635Z" fill="#090909"/>
<path d="M936.939 427.011L914.583 349.749H935.101L946.691 400.377H947.329L960.57 349.749H977.3L990.541 400.49H991.179L1002.81 349.749H1023.29L1000.97 427.011H983.076L969.235 380.156H968.635L954.794 427.011H936.939Z" fill="#090909"/>
<path d="M1096.81 388.38C1096.81 396.881 1095.19 404.086 1091.94 409.997C1088.69 415.907 1084.29 420.396 1078.73 423.465C1073.21 426.533 1067.01 428.067 1060.13 428.067C1053.23 428.067 1047.01 426.521 1041.49 423.427C1035.96 420.333 1031.57 415.844 1028.32 409.959C1025.09 404.049 1023.48 396.856 1023.48 388.38C1023.48 379.879 1025.09 372.673 1028.32 366.763C1031.57 360.853 1035.96 356.363 1041.49 353.295C1047.01 350.226 1053.23 348.692 1060.13 348.692C1067.01 348.692 1073.21 350.226 1078.73 353.295C1084.29 356.363 1088.69 360.853 1091.94 366.763C1095.19 372.673 1096.81 379.879 1096.81 388.38ZM1077.83 388.38C1077.83 383.35 1077.12 379.099 1075.7 375.628C1074.3 372.158 1072.27 369.529 1069.62 367.744C1066.99 365.958 1063.83 365.065 1060.13 365.065C1056.45 365.065 1053.29 365.958 1050.64 367.744C1047.99 369.529 1045.95 372.158 1044.52 375.628C1043.12 379.099 1042.42 383.35 1042.42 388.38C1042.42 393.41 1043.12 397.66 1044.52 401.131C1045.95 404.602 1047.99 407.23 1050.64 409.016C1053.29 410.801 1056.45 411.694 1060.13 411.694C1063.83 411.694 1066.99 410.801 1069.62 409.016C1072.27 407.23 1074.3 404.602 1075.7 401.131C1077.12 397.66 1077.83 393.41 1077.83 388.38Z" fill="#090909"/>
<path d="M1105.54 427.011V349.749H1137.28C1143.03 349.749 1147.99 350.792 1152.17 352.88C1156.37 354.942 1159.61 357.91 1161.88 361.783C1164.16 365.631 1165.3 370.196 1165.3 375.478C1165.3 380.835 1164.13 385.387 1161.81 389.134C1159.48 392.857 1156.18 395.699 1151.91 397.66C1147.63 399.597 1142.57 400.565 1136.71 400.565H1116.65V385.852H1133.26C1136.06 385.852 1138.4 385.488 1140.28 384.758C1142.18 384.004 1143.62 382.872 1144.59 381.363C1145.57 379.829 1146.05 377.867 1146.05 375.478C1146.05 373.088 1145.57 371.114 1144.59 369.555C1143.62 367.97 1142.18 366.788 1140.28 366.009C1138.38 365.204 1136.04 364.801 1133.26 364.801H1124.11V427.011H1105.54ZM1148.79 391.7L1167.92 427.011H1147.67L1128.91 391.7H1148.79Z" fill="#090909"/>
<path d="M1173.37 427.011V349.749H1191.94V382.419H1192.95L1218.34 349.749H1240.21L1212.98 384.23L1240.7 427.011H1218.49L1199.36 396.642L1191.94 406.073V427.011H1173.37Z" fill="#090909"/>
<path d="M414.495 466.578H982.941" stroke="url(#paint0_linear_361_335)" stroke-width="4.6028"/>
<path d="M992.147 482.583V451.619H997.62V463.201H997.847C998.129 462.636 998.527 462.036 999.041 461.401C999.555 460.756 1000.25 460.207 1001.13 459.753C1002 459.29 1003.12 459.058 1004.48 459.058C1006.28 459.058 1007.9 459.516 1009.34 460.434C1010.79 461.341 1011.94 462.686 1012.78 464.471C1013.64 466.245 1014.07 468.422 1014.07 471.002C1014.07 473.552 1013.65 475.719 1012.82 477.503C1011.98 479.287 1010.84 480.648 1009.4 481.586C1007.96 482.523 1006.32 482.992 1004.5 482.992C1003.17 482.992 1002.06 482.77 1001.19 482.326C1000.31 481.883 999.606 481.349 999.072 480.724C998.547 480.089 998.139 479.489 997.847 478.925H997.529V482.583H992.147ZM997.514 470.972C997.514 472.474 997.726 473.789 998.149 474.918C998.583 476.047 999.203 476.929 1000.01 477.564C1000.82 478.189 1001.81 478.501 1002.97 478.501C1004.18 478.501 1005.19 478.179 1006.01 477.534C1006.83 476.878 1007.44 475.986 1007.86 474.857C1008.28 473.719 1008.49 472.423 1008.49 470.972C1008.49 469.53 1008.28 468.25 1007.87 467.132C1007.46 466.013 1006.84 465.136 1006.03 464.501C1005.21 463.866 1004.19 463.548 1002.97 463.548C1001.8 463.548 1000.81 463.856 999.994 464.471C999.177 465.085 998.558 465.947 998.134 467.056C997.721 468.165 997.514 469.47 997.514 470.972Z" fill="#090909"/>
<path d="M1021.33 491.292C1020.59 491.292 1019.9 491.232 1019.26 491.111C1018.64 491 1018.14 490.869 1017.77 490.718L1019.04 486.454C1019.83 486.686 1020.54 486.797 1021.17 486.787C1021.79 486.777 1022.34 486.58 1022.82 486.197C1023.3 485.824 1023.71 485.199 1024.04 484.322L1024.51 483.067L1016.09 459.36H1021.89L1027.25 476.899H1027.49L1032.86 459.36H1038.68L1029.38 485.396C1028.94 486.625 1028.37 487.679 1027.65 488.556C1026.94 489.443 1026.06 490.118 1025.02 490.582C1024 491.055 1022.77 491.292 1021.33 491.292Z" fill="#090909"/>
<mask id="mask0_361_335" style="mask-type:luminance" maskUnits="userSpaceOnUse" x="1047" y="449" width="192" height="35">
<path d="M1238.67 449.665H1047.38V483.491H1238.67V449.665Z" fill="white"/>
</mask>
<g mask="url(#mask0_361_335)">
<path d="M1161.13 482.988H1156.65C1156.52 481.862 1156.4 480.744 1156.26 479.581C1156.2 479.644 1156.15 479.673 1156.13 479.712C1154.75 481.781 1152.77 482.905 1150.37 483.323C1144.53 484.343 1139.15 480.608 1137.99 474.718C1137.39 471.683 1137.53 468.696 1138.88 465.861C1140.44 462.579 1143.04 460.571 1146.61 459.929C1149.39 459.43 1152.02 459.855 1154.31 461.615C1154.94 462.101 1155.43 462.769 1155.99 463.357C1156.07 463.451 1156.14 463.562 1156.26 463.732C1156.41 462.631 1156.55 461.609 1156.69 460.587C1156.72 460.417 1156.7 460.234 1156.97 460.235C1158.35 460.242 1159.72 460.238 1161.12 460.238V482.988H1161.13ZM1156.27 471.526C1156.23 471.194 1156.2 470.735 1156.13 470.282C1155.55 466.253 1151.96 463.956 1148.68 464.437C1146.31 464.785 1144.58 465.992 1143.52 468.13C1142.71 469.775 1142.64 471.519 1142.92 473.307C1143.7 478.151 1149.29 480.547 1153.31 477.731C1155.41 476.26 1156.21 474.129 1156.27 471.524V471.526Z" fill="#090909"/>
<path d="M1214.05 471.687C1214.02 478.479 1208.89 483.524 1202.06 483.487C1195.28 483.45 1190.19 478.32 1190.23 471.551C1190.27 464.789 1195.44 459.711 1202.25 459.753C1208.98 459.794 1214.09 464.961 1214.05 471.687ZM1208.98 471.322C1208.88 470.809 1208.8 469.853 1208.5 468.972C1207.65 466.422 1205.88 464.827 1203.19 464.428C1200.65 464.052 1198.47 464.804 1196.87 466.858C1195.27 468.92 1194.98 471.301 1195.6 473.765C1196.98 479.214 1202.94 480.144 1206.28 477.518C1208.14 476.054 1208.89 474.058 1208.98 471.322Z" fill="#090909"/>
<path d="M1222.8 482.985H1217.73V460.268H1222.22C1222.36 461.379 1222.5 462.507 1222.66 463.709C1222.91 463.364 1223.12 463.061 1223.36 462.777C1224.74 461.088 1226.55 460.163 1228.69 459.852C1230.72 459.555 1232.67 459.86 1234.46 460.908C1236.61 462.165 1237.81 464.115 1238.32 466.495C1238.53 467.476 1238.64 468.497 1238.65 469.5C1238.69 473.885 1238.67 478.271 1238.66 482.658C1238.66 482.752 1238.66 482.844 1238.65 482.969H1233.53V482.439C1233.53 478.538 1233.53 474.639 1233.52 470.739C1233.52 469.686 1233.43 468.648 1233.08 467.634C1231.95 464.348 1228.28 463.581 1225.78 465.16C1223.66 466.492 1222.81 468.503 1222.8 470.923C1222.78 474.769 1222.8 478.616 1222.8 482.462V482.985Z" fill="#090909"/>
<path d="M1106.69 482.989H1102.2C1102.06 481.854 1101.92 480.725 1101.76 479.498C1101.61 479.719 1101.5 479.877 1101.39 480.033C1099.45 482.696 1096.78 483.723 1093.59 483.428C1089.49 483.049 1086.83 480.171 1086.16 476.163C1086.01 475.264 1085.96 474.338 1085.96 473.424C1085.94 469.199 1085.95 464.975 1085.95 460.75C1085.95 460.593 1085.95 460.436 1085.95 460.258H1091.09C1091.09 460.43 1091.09 460.587 1091.09 460.744C1091.09 464.712 1091.09 468.679 1091.09 472.648C1091.09 473.748 1091.22 474.822 1091.62 475.859C1092.77 478.859 1096.28 479.644 1098.69 478.092C1100.74 476.767 1101.59 474.794 1101.61 472.421C1101.63 468.939 1101.62 465.458 1101.62 461.975C1101.62 461.411 1101.62 460.847 1101.62 460.261H1106.69V482.989Z" fill="#090909"/>
<path d="M1062.82 482.979H1057.61V454.824H1047.38V449.982H1073.01V454.795H1062.82V482.979H1062.82Z" fill="#090909"/>
<path d="M1114.02 464.471H1109.6V460.241H1114C1114 459.415 1114 458.636 1114 457.857C1114 455.981 1114.4 454.217 1115.49 452.657C1116.63 451.031 1118.22 450.13 1120.15 449.8C1121.53 449.565 1122.89 449.647 1124.25 449.953C1124.37 449.981 1124.55 450.13 1124.55 450.224C1124.57 451.518 1124.56 452.811 1124.56 454.163C1124.38 454.147 1124.22 454.116 1124.07 454.123C1123.23 454.167 1122.36 454.118 1121.54 454.29C1120.14 454.585 1119.26 455.694 1119.14 457.23C1119.06 458.207 1119.12 459.195 1119.12 460.23H1125.48V464.451H1119.11V482.972H1114.02V464.471H1114.02Z" fill="#090909"/>
<path d="M1167.67 464.468H1163.59V460.256H1167.61V452.647H1172.76V460.233H1179.39V464.456H1172.82C1172.8 464.571 1172.77 464.647 1172.77 464.723C1172.77 468.151 1172.78 471.579 1172.79 475.006C1172.79 475.811 1172.94 476.594 1173.39 477.284C1173.96 478.163 1174.84 478.52 1175.83 478.61C1176.75 478.696 1177.68 478.675 1178.61 478.701C1178.72 478.704 1178.82 478.701 1178.95 478.701V482.888C1177.95 483.161 1176.92 483.316 1175.87 483.331C1174.12 483.355 1172.45 483.002 1170.98 482.023C1169.1 480.776 1168.11 478.965 1167.79 476.762C1167.7 476.124 1167.68 475.471 1167.68 474.826C1167.67 471.561 1167.67 468.295 1167.67 465.028V464.463L1167.67 464.468Z" fill="#090909"/>
<path d="M1128.77 449.964H1133.82V482.968H1128.77V449.964Z" fill="#090909"/>
<path d="M1082.66 464.765C1081.81 464.765 1080.98 464.722 1080.16 464.774C1077.86 464.921 1076.47 466.309 1076.27 468.637C1076.22 469.201 1076.2 469.768 1076.2 470.333C1076.19 474.381 1076.19 478.429 1076.19 482.477C1076.19 482.636 1076.19 482.794 1076.19 482.977H1071.09C1071.09 482.837 1071.09 482.696 1071.09 482.553C1071.09 477.898 1071.05 473.242 1071.1 468.588C1071.12 466.23 1071.79 464.064 1073.45 462.302C1074.85 460.823 1076.6 460.083 1078.59 459.836C1079.84 459.682 1081.07 459.757 1082.29 459.995C1082.57 460.048 1082.7 460.139 1082.7 460.46C1082.68 461.769 1082.69 463.078 1082.69 464.386C1082.69 464.492 1082.67 464.599 1082.66 464.767V464.765Z" fill="#090909"/>
<path d="M1182.22 460.253H1187.25V482.975H1182.22V460.253Z" fill="#090909"/>
<path d="M1181.46 452.936C1181.45 451.13 1182.89 449.712 1184.74 449.709C1186.57 449.706 1188.01 451.167 1188.01 453.012C1188 454.734 1186.54 456.156 1184.77 456.179C1182.93 456.203 1181.47 454.774 1181.46 452.936Z" fill="#090909"/>
</g>
</g>
<defs>
<linearGradient id="paint0_linear_361_335" x1="nan" y1="nan" x2="nan" y2="nan" gradientUnits="userSpaceOnUse">
<stop stop-color="#090909" stop-opacity="0"/>
<stop offset="1" stop-color="#090909"/>
</linearGradient>
<clipPath id="clip0_361_335">
<rect width="1500" height="819" fill="white" transform="translate(0 0.5)"/>
</clipPath>
</defs>
</svg>
