<svg width="802" height="150" viewBox="0 0 802 150" fill="none" xmlns="http://www.w3.org/2000/svg">
<g filter="url(#filter0_d_277_192)">
<rect x="4" width="141.195" height="141.195" rx="70.5973" fill="white" shape-rendering="crispEdges"/>
<g clip-path="url(#clip0_277_192)">
<path d="M74.4483 94.3428C87.5747 94.3428 98.2205 83.6985 98.2205 70.5707C98.2205 57.443 87.5761 46.7987 74.4483 46.7987C61.3206 46.7987 50.6762 57.443 50.6762 70.5707C50.6762 83.6985 61.322 94.3428 74.4483 94.3428Z" fill="#0407FF"/>
<path d="M110.395 77.2566C109.062 84.3935 105.59 90.9631 100.293 96.2094L100.209 96.2916C100.096 96.4022 99.982 96.5129 99.8686 96.6221C99.7608 96.7242 99.653 96.8263 99.5452 96.9284L99.4403 97.0263C92.6665 103.294 83.8461 106.746 74.603 106.747H74.5959C65.3614 106.747 56.5452 103.302 49.7728 97.0476L49.6466 96.9298C49.5445 96.8348 49.4424 96.7384 49.3417 96.6419C49.2339 96.5384 49.1261 96.4349 49.0183 96.3285L48.9176 96.2306C43.6061 90.9801 40.127 84.4034 38.7909 77.2581H22.9727C23.1868 78.9132 23.4279 80.5528 23.8009 82.171L24.1456 83.5C24.7824 85.9508 25.6107 88.3789 26.6078 90.7149C29.233 96.8674 32.9887 102.392 37.7769 107.137L37.7981 107.157C42.5778 111.903 48.1446 115.63 54.344 118.234C56.6998 119.223 59.1464 120.045 61.6171 120.675L62.9559 121.017C66.7485 121.876 70.6573 122.258 74.5945 122.258H74.6058C78.5629 122.258 82.4902 121.871 86.3011 121.003L87.6414 120.659C90.0993 120.028 92.5317 119.21 94.8719 118.226C101.07 115.62 106.635 111.891 111.412 107.143C111.71 106.847 112.012 106.539 112.308 106.231C116.674 101.691 120.133 96.4661 122.591 90.6993C123.588 88.3619 124.415 85.9324 125.05 83.4801L125.395 82.1512C125.765 80.5386 126.005 78.9047 126.218 77.2566H110.395Z" fill="#0407FF"/>
<path d="M22.9358 64.2593H38.7427C39.8873 57.8883 42.7452 51.8917 47.071 46.9305L47.0866 46.9121C47.2086 46.7731 47.3319 46.6341 47.4539 46.4979C47.5362 46.4071 47.6184 46.3164 47.7035 46.2256C47.7532 46.1717 47.8042 46.1164 47.8539 46.0639C51.2351 42.4416 55.2432 39.5894 59.7633 37.5839C64.4423 35.5089 69.4305 34.4551 74.5902 34.4537H74.5973C84.0645 34.4537 93.0437 38.0505 99.8757 44.5804C99.9622 44.6626 100.047 44.7463 100.134 44.83L100.297 44.9888C105.672 50.3146 109.167 57.0004 110.456 64.2578H126.259C126.04 62.4793 125.784 60.7163 125.382 58.9789L125.036 57.6486C124.401 55.2091 123.575 52.7952 122.584 50.472C119.959 44.3208 116.202 38.7966 111.418 34.0552C111.181 33.8212 110.927 33.5744 110.618 33.2808C106.014 28.8926 100.71 25.4192 94.8506 22.9584C92.5105 21.9755 90.0795 21.1586 87.6216 20.5289L86.2813 20.1857C82.4731 19.3191 78.5487 18.9347 74.5959 18.9347H74.586C70.6445 18.9347 66.7329 19.3191 62.9375 20.18L61.5986 20.5232C59.1294 21.1544 56.6842 21.9769 54.3298 22.9669C48.1461 25.5667 42.592 29.2826 37.8223 34.0141L37.74 34.0821L37.7145 34.1204C32.9561 38.8533 29.2174 44.362 26.6035 50.4933C25.6135 52.8164 24.7895 55.2304 24.1555 57.6684L23.8095 58.9988C23.4095 60.7305 23.1556 62.4864 22.9372 64.2593H22.9358Z" fill="#0407FF"/>
</g>
</g>
<path d="M195.72 97.5977V43.5519H214.984C219.189 43.5519 222.673 44.3172 225.435 45.8478C228.197 47.3784 230.264 49.4719 231.636 52.1285C233.008 54.7674 233.695 57.7407 233.695 61.0482C233.695 64.3732 233 67.364 231.61 70.0206C230.238 72.6595 228.162 74.7531 225.382 76.3013C222.62 77.8319 219.145 78.5972 214.958 78.5972H201.71V71.6831H214.219C216.876 71.6831 219.031 71.2257 220.685 70.3109C222.338 69.3785 223.552 68.1118 224.326 66.5108C225.1 64.9098 225.487 63.0889 225.487 61.0482C225.487 59.0074 225.1 57.1953 224.326 55.6119C223.552 54.0285 222.329 52.7882 220.658 51.891C219.004 50.9937 216.823 50.5451 214.114 50.5451H203.874V97.5977H195.72ZM257.701 98.4157C253.901 98.4157 250.584 97.5449 247.752 95.8032C244.919 94.0615 242.72 91.6248 241.154 88.4933C239.589 85.3617 238.806 81.7024 238.806 77.5152C238.806 73.3105 239.589 69.6335 241.154 66.4844C242.72 63.3352 244.919 60.8898 247.752 59.1481C250.584 57.4064 253.901 56.5355 257.701 56.5355C261.501 56.5355 264.817 57.4064 267.649 59.1481C270.482 60.8898 272.681 63.3352 274.247 66.4844C275.813 69.6335 276.596 73.3105 276.596 77.5152C276.596 81.7024 275.813 85.3617 274.247 88.4933C272.681 91.6248 270.482 94.0615 267.649 95.8032C264.817 97.5449 261.501 98.4157 257.701 98.4157ZM257.727 91.792C260.19 91.792 262.231 91.141 263.849 89.8391C265.468 88.5372 266.664 86.8043 267.438 84.6404C268.23 82.4765 268.626 80.0926 268.626 77.4888C268.626 74.9027 268.23 72.5276 267.438 70.3637C266.664 68.1821 265.468 66.4316 263.849 65.1121C262.231 63.7927 260.19 63.1329 257.727 63.1329C255.246 63.1329 253.188 63.7927 251.552 65.1121C249.933 66.4316 248.728 68.1821 247.936 70.3637C247.162 72.5276 246.775 74.9027 246.775 77.4888C246.775 80.0926 247.162 82.4765 247.936 84.6404C248.728 86.8043 249.933 88.5372 251.552 89.8391C253.188 91.141 255.246 91.792 257.727 91.792ZM291.471 97.5977L279.543 57.0633H287.697L295.64 86.8307H296.036L304.006 57.0633H312.16L320.077 86.6988H320.473L328.363 57.0633H336.518L324.616 97.5977H316.567L308.334 68.3317H307.727L299.493 97.5977H291.471ZM358.756 98.4157C354.762 98.4157 351.323 97.5625 348.437 95.8559C345.57 94.1318 343.353 91.7128 341.787 88.5988C340.239 85.4673 339.465 81.7991 339.465 77.5944C339.465 73.4424 340.239 69.7831 341.787 66.6163C343.353 63.4496 345.534 60.9778 348.332 59.2009C351.147 57.424 354.437 56.5355 358.201 56.5355C360.489 56.5355 362.705 56.9138 364.852 57.6703C366.998 58.4268 368.924 59.6143 370.631 61.2329C372.337 62.8514 373.683 64.9538 374.669 67.54C375.654 70.1086 376.146 73.2313 376.146 76.9083V79.7056H343.925V73.7943H368.414C368.414 71.7183 367.992 69.8799 367.147 68.2789C366.303 66.6603 365.116 65.3848 363.585 64.4524C362.072 63.52 360.295 63.0538 358.254 63.0538C356.038 63.0538 354.102 63.5991 352.449 64.6899C350.812 65.7631 349.546 67.1705 348.648 68.9122C347.769 70.6364 347.329 72.51 347.329 74.5332V79.1514C347.329 81.8607 347.804 84.1654 348.754 86.0654C349.722 87.9655 351.067 89.4169 352.792 90.4197C354.516 91.4049 356.53 91.8975 358.835 91.8975C360.33 91.8975 361.694 91.6864 362.925 91.2642C364.157 90.8243 365.221 90.1734 366.118 89.3113C367.016 88.4493 367.702 87.3849 368.177 86.1182L375.645 87.4641C375.047 89.6632 373.974 91.5896 372.425 93.2434C370.895 94.8795 368.968 96.155 366.646 97.0699C364.341 97.9671 361.711 98.4157 358.756 98.4157ZM383.415 97.5977V57.0633H391.041V63.5024H391.464C392.203 61.3208 393.504 59.6055 395.369 58.3564C397.252 57.0897 399.38 56.4564 401.756 56.4564C402.248 56.4564 402.829 56.474 403.497 56.5092C404.183 56.5443 404.72 56.5883 405.107 56.6411V64.1885C404.79 64.1005 404.227 64.0038 403.418 63.8982C402.609 63.7751 401.8 63.7135 400.99 63.7135C399.125 63.7135 397.463 64.1093 396.003 64.901C394.56 65.6751 393.416 66.7571 392.572 68.1469C391.728 69.5192 391.305 71.085 391.305 72.8443V97.5977H383.415ZM426.467 98.4157C422.474 98.4157 419.034 97.5625 416.149 95.8559C413.282 94.1318 411.065 91.7128 409.499 88.5988C407.951 85.4673 407.177 81.7991 407.177 77.5944C407.177 73.4424 407.951 69.7831 409.499 66.6163C411.065 63.4496 413.246 60.9778 416.044 59.2009C418.858 57.424 422.148 56.5355 425.913 56.5355C428.2 56.5355 430.417 56.9138 432.563 57.6703C434.71 58.4268 436.636 59.6143 438.343 61.2329C440.049 62.8514 441.395 64.9538 442.38 67.54C443.366 70.1086 443.858 73.2313 443.858 76.9083V79.7056H411.637V73.7943H436.126C436.126 71.7183 435.704 69.8799 434.859 68.2789C434.015 66.6603 432.827 65.3848 431.297 64.4524C429.784 63.52 428.007 63.0538 425.966 63.0538C423.749 63.0538 421.814 63.5991 420.16 64.6899C418.524 65.7631 417.258 67.1705 416.36 68.9122C415.481 70.6364 415.041 72.51 415.041 74.5332V79.1514C415.041 81.8607 415.516 84.1654 416.466 86.0654C417.433 87.9655 418.779 89.4169 420.503 90.4197C422.228 91.4049 424.242 91.8975 426.547 91.8975C428.042 91.8975 429.406 91.6864 430.637 91.2642C431.869 90.8243 432.933 90.1734 433.83 89.3113C434.727 88.4493 435.414 87.3849 435.889 86.1182L443.357 87.4641C442.759 89.6632 441.685 91.5896 440.137 93.2434C438.607 94.8795 436.68 96.155 434.358 97.0699C432.053 97.9671 429.423 98.4157 426.467 98.4157ZM466.301 98.3893C463.028 98.3893 460.108 97.5537 457.539 95.8823C454.988 94.1934 452.983 91.792 451.522 88.678C450.08 85.5464 449.359 81.7903 449.359 77.4097C449.359 73.029 450.089 69.2817 451.549 66.1677C453.027 63.0538 455.05 60.6699 457.618 59.0162C460.187 57.3624 463.099 56.5355 466.353 56.5355C468.869 56.5355 470.892 56.9578 472.423 57.8022C473.971 58.6291 475.168 59.5967 476.012 60.7051C476.874 61.8135 477.543 62.7899 478.018 63.6343H478.493V43.5519H486.383V97.5977H478.677V91.2906H478.018C477.543 92.1526 476.856 93.1378 475.959 94.2462C475.08 95.3545 473.866 96.3222 472.317 97.149C470.769 97.9759 468.764 98.3893 466.301 98.3893ZM468.042 91.66C470.312 91.66 472.229 91.0618 473.795 89.8655C475.379 88.6516 476.575 86.9715 477.384 84.8251C478.211 82.6788 478.625 80.1806 478.625 77.3305C478.625 74.5156 478.22 72.0526 477.411 69.9414C476.601 67.8303 475.414 66.1853 473.848 65.0066C472.282 63.8279 470.347 63.2385 468.042 63.2385C465.667 63.2385 463.688 63.8542 462.105 65.0858C460.521 66.3173 459.325 67.9974 458.516 70.1262C457.724 72.2549 457.328 74.6564 457.328 77.3305C457.328 80.0398 457.733 82.4765 458.542 84.6404C459.351 86.8043 460.548 88.5197 462.131 89.7864C463.732 91.0355 465.702 91.66 468.042 91.66ZM514.972 97.5977V43.5519H522.863V63.6343H523.338C523.795 62.7899 524.455 61.8135 525.317 60.7051C526.179 59.5967 527.376 58.6291 528.906 57.8022C530.437 56.9578 532.46 56.5355 534.976 56.5355C538.248 56.5355 541.168 57.3624 543.737 59.0162C546.306 60.6699 548.32 63.0538 549.78 66.1677C551.258 69.2817 551.997 73.029 551.997 77.4097C551.997 81.7903 551.267 85.5464 549.807 88.678C548.346 91.792 546.341 94.1934 543.79 95.8823C541.239 97.5537 538.327 98.3893 535.055 98.3893C532.592 98.3893 530.577 97.9759 529.012 97.149C527.463 96.3222 526.25 95.3545 525.37 94.2462C524.49 93.1378 523.813 92.1526 523.338 91.2906H522.678V97.5977H514.972ZM522.705 77.3305C522.705 80.1806 523.118 82.6788 523.945 84.8251C524.772 86.9715 525.968 88.6516 527.534 89.8655C529.1 91.0618 531.017 91.66 533.287 91.66C535.644 91.66 537.615 91.0355 539.198 89.7864C540.781 88.5197 541.978 86.8043 542.787 84.6404C543.614 82.4765 544.027 80.0398 544.027 77.3305C544.027 74.6564 543.623 72.2549 542.813 70.1262C542.022 67.9974 540.825 66.3173 539.224 65.0858C537.641 63.8542 535.662 63.2385 533.287 63.2385C531 63.2385 529.064 63.8279 527.481 65.0066C525.915 66.1853 524.728 67.8303 523.918 69.9414C523.109 72.0526 522.705 74.5156 522.705 77.3305ZM562.98 112.798C561.801 112.798 560.728 112.701 559.76 112.508C558.793 112.332 558.071 112.138 557.596 111.927L559.496 105.462C560.939 105.849 562.223 106.016 563.349 105.963C564.475 105.91 565.469 105.488 566.331 104.696C567.211 103.905 567.985 102.612 568.653 100.817L569.63 98.1254L554.799 57.0633H563.244L573.509 88.5197H573.931L584.197 57.0633H592.668L575.963 103.008C575.189 105.119 574.204 106.904 573.008 108.365C571.811 109.842 570.386 110.951 568.733 111.69C567.079 112.429 565.161 112.798 562.98 112.798ZM614.746 50.5715V43.5519H656.573V50.5715H639.71V97.5977H631.582V50.5715H614.746ZM664.33 97.5977V43.5519H683.594C687.781 43.5519 691.256 44.2732 694.018 45.7158C696.798 47.1585 698.874 49.1553 700.246 51.7063C701.618 54.2397 702.304 57.1689 702.304 60.494C702.304 63.8015 701.609 66.7131 700.22 69.2289C698.847 71.7271 696.771 73.6711 693.992 75.061C691.23 76.4508 687.755 77.1458 683.568 77.1458H668.974V70.1262H682.829C685.468 70.1262 687.614 69.7479 689.268 68.9914C690.939 68.2349 692.162 67.1353 692.936 65.6927C693.71 64.2501 694.097 62.5172 694.097 60.494C694.097 58.4532 693.701 56.6851 692.91 55.1897C692.136 53.6943 690.913 52.5507 689.242 51.759C687.588 50.9498 685.415 50.5451 682.723 50.5451H672.484V97.5977H664.33ZM691.01 73.2137L704.363 97.5977H695.074L681.984 73.2137H691.01ZM745.496 43.5519H753.676V79.0986C753.676 82.8811 752.788 86.2326 751.011 89.153C749.234 92.0559 746.736 94.3429 743.516 96.0143C740.297 97.668 736.523 98.4949 732.195 98.4949C727.885 98.4949 724.12 97.668 720.9 96.0143C717.681 94.3429 715.183 92.0559 713.406 89.153C711.629 86.2326 710.741 82.8811 710.741 79.0986V43.5519H718.895V78.4389C718.895 80.8843 719.431 83.057 720.505 84.9571C721.595 86.8571 723.135 88.3525 725.123 89.4433C727.111 90.5165 729.468 91.0531 732.195 91.0531C734.94 91.0531 737.306 90.5165 739.294 89.4433C741.3 88.3525 742.83 86.8571 743.886 84.9571C744.959 83.057 745.496 80.8843 745.496 78.4389V43.5519ZM764.046 97.5977V43.5519H797.56V50.5715H772.2V67.0386H795.159V74.0318H772.2V97.5977H764.046Z" fill="#090909"/>
<defs>
<filter id="filter0_d_277_192" x="0" y="0" width="149.195" height="149.195" filterUnits="userSpaceOnUse" color-interpolation-filters="sRGB">
<feFlood flood-opacity="0" result="BackgroundImageFix"/>
<feColorMatrix in="SourceAlpha" type="matrix" values="0 0 0 0 0 0 0 0 0 0 0 0 0 0 0 0 0 0 127 0" result="hardAlpha"/>
<feOffset dy="4"/>
<feGaussianBlur stdDeviation="2"/>
<feComposite in2="hardAlpha" operator="out"/>
<feColorMatrix type="matrix" values="0 0 0 0 0 0 0 0 0 0 0 0 0 0 0 0 0 0 0.25 0"/>
<feBlend mode="normal" in2="BackgroundImageFix" result="effect1_dropShadow_277_192"/>
<feBlend mode="normal" in="SourceGraphic" in2="effect1_dropShadow_277_192" result="shape"/>
</filter>
<clipPath id="clip0_277_192">
<rect width="103.326" height="103.326" fill="white" transform="translate(22.9341 18.9336)"/>
</clipPath>
</defs>
</svg>
