<svg width="1500" height="819" viewBox="0 0 1500 819" fill="none" xmlns="http://www.w3.org/2000/svg">
<rect width="1500" height="819" fill="white"/>
<path d="M318.229 362.841C302.787 362.841 290.262 375.363 290.262 390.807C290.262 406.252 302.785 418.774 318.229 418.774C333.673 418.774 346.196 406.252 346.196 390.807C346.196 375.363 333.672 362.841 318.229 362.841Z" fill="#090909"/>
<path d="M275.939 382.942C277.508 374.546 281.593 366.817 287.825 360.645L287.923 360.548C288.057 360.418 288.19 360.288 288.324 360.159C288.45 360.039 288.577 359.919 288.704 359.799L288.827 359.684C296.796 352.31 307.173 348.249 318.047 348.247H318.056C328.92 348.247 339.291 352.3 347.259 359.659L347.407 359.797C347.527 359.909 347.648 360.022 347.766 360.136C347.893 360.258 348.02 360.379 348.146 360.505L348.265 360.62C354.514 366.797 358.607 374.534 360.178 382.94H378.788C378.536 380.993 378.252 379.064 377.813 377.16L377.408 375.597C376.659 372.713 375.684 369.857 374.511 367.109C371.423 359.871 367.005 353.372 361.371 347.789L361.346 347.765C355.723 342.182 349.174 337.797 341.881 334.734C339.11 333.571 336.231 332.603 333.325 331.862L331.75 331.46C327.288 330.449 322.689 330 318.057 330H318.044C313.389 330 308.768 330.456 304.285 331.477L302.708 331.88C299.817 332.623 296.955 333.586 294.202 334.744C286.91 337.809 280.363 342.196 274.743 347.782C274.393 348.131 274.037 348.493 273.689 348.855C268.553 354.196 264.483 360.343 261.592 367.127C260.419 369.877 259.446 372.735 258.698 375.62L258.293 377.184C257.857 379.081 257.575 381.003 257.325 382.942H275.939Z" fill="#090909"/>
<path d="M378.831 398.233H360.235C358.889 405.728 355.527 412.782 350.437 418.619L350.419 418.641C350.276 418.804 350.13 418.968 349.987 419.128C349.89 419.235 349.793 419.341 349.693 419.448C349.635 419.512 349.575 419.577 349.516 419.638C345.538 423.9 340.823 427.255 335.505 429.615C330.001 432.056 324.133 433.296 318.062 433.297H318.054C306.916 433.297 296.353 429.066 288.315 421.384C288.213 421.287 288.113 421.189 288.012 421.09L287.82 420.903C281.496 414.638 277.384 406.772 275.868 398.234H257.277C257.534 400.327 257.836 402.401 258.308 404.445L258.715 406.01C259.462 408.88 260.434 411.719 261.6 414.453C264.688 421.689 269.108 428.188 274.736 433.766C275.015 434.041 275.314 434.332 275.678 434.677C281.094 439.84 287.334 443.926 294.227 446.821C296.98 447.977 299.84 448.938 302.732 449.679L304.308 450.083C308.788 451.103 313.405 451.555 318.056 451.555H318.067C322.704 451.555 327.306 451.103 331.771 450.09L333.346 449.686C336.251 448.943 339.128 447.976 341.898 446.811C349.173 443.753 355.707 439.381 361.318 433.815L361.415 433.734L361.445 433.689C367.043 428.121 371.441 421.641 374.516 414.428C375.681 411.694 376.65 408.855 377.396 405.986L377.803 404.421C378.274 402.384 378.573 400.318 378.83 398.233H378.831Z" fill="#090909"/>
<path d="M410.372 367.286V352.172H475.45V367.286H452.103V429.169H433.757V367.286H410.372Z" fill="#090909"/>
<path d="M482.422 429.169V352.172H514.228C519.993 352.172 524.968 353.212 529.154 355.293C533.364 357.348 536.61 360.305 538.891 364.165C541.172 368 542.312 372.549 542.312 377.813C542.312 383.151 541.147 387.688 538.816 391.422C536.485 395.132 533.176 397.964 528.891 399.919C524.605 401.849 519.529 402.814 513.664 402.814H493.55V388.151H510.205C513.012 388.151 515.356 387.788 517.236 387.061C519.141 386.309 520.582 385.181 521.559 383.678C522.537 382.149 523.026 380.194 523.026 377.813C523.026 375.432 522.537 373.464 521.559 371.91C520.582 370.331 519.141 369.153 517.236 368.376C515.331 367.574 512.987 367.173 510.205 367.173H501.032V429.169H482.422ZM525.77 393.979L544.944 429.169H524.642L505.844 393.979H525.77Z" fill="#090909"/>
<path d="M596.984 352.172H615.556V401.836C615.556 407.576 614.19 412.576 611.458 416.837C608.726 421.073 604.916 424.356 600.029 426.687C595.141 428.993 589.464 430.146 582.998 430.146C576.456 430.146 570.742 428.993 565.854 426.687C560.967 424.356 557.169 421.073 554.463 416.837C551.756 412.576 550.402 407.576 550.402 401.836V352.172H569.012V400.22C569.012 402.877 569.589 405.245 570.742 407.325C571.92 409.406 573.561 411.035 575.667 412.213C577.772 413.391 580.216 413.98 582.998 413.98C585.78 413.98 588.211 413.391 590.291 412.213C592.397 411.035 594.039 409.406 595.217 407.325C596.395 405.245 596.984 402.877 596.984 400.22V352.172Z" fill="#090909"/>
<path d="M625.103 429.169V352.172H677.662V367.286H643.713V383.076H674.316V398.227H643.713V429.169H625.103Z" fill="#090909"/>
<path d="M691.636 430.259C688.929 430.259 686.61 429.307 684.68 427.402C682.775 425.497 681.836 423.191 681.861 420.484C681.836 417.827 682.775 415.559 684.68 413.679C686.61 411.774 688.929 410.822 691.636 410.822C694.192 410.822 696.448 411.774 698.403 413.679C700.383 415.559 701.385 417.827 701.41 420.484C701.385 422.289 700.909 423.93 699.982 425.409C699.08 426.888 697.889 428.066 696.41 428.943C694.956 429.82 693.365 430.259 691.636 430.259Z" fill="#090909"/>
<path d="M776.966 352.172V429.169H761.176L730.535 384.73H730.047V429.169H711.437V352.172H727.452L757.755 396.535H758.394V352.172H776.966Z" fill="#090909"/>
<path d="M786.551 429.169V352.172H840.238V367.286H805.161V383.076H837.493V398.227H805.161V414.055H840.238V429.169H786.551Z" fill="#090909"/>
<path d="M847.256 367.286V352.172H912.335V367.286H888.988V429.169H870.641V367.286H847.256Z" fill="#090909"/>
<path d="M937.766 429.169L915.359 352.172H935.924L947.541 402.626H948.18L961.451 352.172H978.219L991.49 402.739H992.129L1003.78 352.172H1024.31L1001.94 429.169H984.009L970.136 382.474H969.534L955.661 429.169H937.766Z" fill="#090909"/>
<path d="M1098.01 390.67C1098.01 399.142 1096.38 406.323 1093.12 412.213C1089.86 418.103 1085.45 422.577 1079.89 425.635C1074.35 428.692 1068.13 430.221 1061.24 430.221C1054.32 430.221 1048.09 428.68 1042.55 425.597C1037.01 422.514 1032.61 418.04 1029.36 412.175C1026.12 406.285 1024.51 399.117 1024.51 390.67C1024.51 382.199 1026.12 375.018 1029.36 369.128C1032.61 363.238 1037.01 358.764 1042.55 355.706C1048.09 352.648 1054.32 351.119 1061.24 351.119C1068.13 351.119 1074.35 352.648 1079.89 355.706C1085.45 358.764 1089.86 363.238 1093.12 369.128C1096.38 375.018 1098.01 382.199 1098.01 390.67ZM1078.98 390.67C1078.98 385.658 1078.27 381.422 1076.84 377.963C1075.44 374.504 1073.41 371.885 1070.75 370.105C1068.12 368.326 1064.95 367.436 1061.24 367.436C1057.55 367.436 1054.38 368.326 1051.73 370.105C1049.07 371.885 1047.03 374.504 1045.6 377.963C1044.19 381.422 1043.49 385.658 1043.49 390.67C1043.49 395.683 1044.19 399.919 1045.6 403.378C1047.03 406.837 1049.07 409.456 1051.73 411.235C1054.38 413.015 1057.55 413.905 1061.24 413.905C1064.95 413.905 1068.12 413.015 1070.75 411.235C1073.41 409.456 1075.44 406.837 1076.84 403.378C1078.27 399.919 1078.98 395.683 1078.98 390.67Z" fill="#090909"/>
<path d="M1106.75 429.169V352.172H1138.56C1144.33 352.172 1149.3 353.212 1153.49 355.293C1157.7 357.348 1160.94 360.305 1163.22 364.165C1165.5 368 1166.64 372.549 1166.64 377.813C1166.64 383.151 1165.48 387.688 1163.15 391.422C1160.82 395.132 1157.51 397.964 1153.22 399.919C1148.94 401.849 1143.86 402.814 1138 402.814H1117.88V388.151H1134.54C1137.34 388.151 1139.69 387.788 1141.57 387.061C1143.47 386.309 1144.91 385.181 1145.89 383.678C1146.87 382.149 1147.36 380.194 1147.36 377.813C1147.36 375.432 1146.87 373.464 1145.89 371.91C1144.91 370.331 1143.47 369.153 1141.57 368.376C1139.66 367.574 1137.32 367.173 1134.54 367.173H1125.36V429.169H1106.75ZM1150.1 393.979L1169.28 429.169H1148.97L1130.18 393.979H1150.1Z" fill="#090909"/>
<path d="M1174.73 429.169V352.172H1193.34V384.73H1194.36L1219.81 352.172H1241.73L1214.44 386.535L1242.22 429.169H1219.96L1200.79 398.904L1193.34 408.303V429.169H1174.73Z" fill="#090909"/>
</svg>
