<svg width="1500" height="819" viewBox="0 0 1500 819" fill="none" xmlns="http://www.w3.org/2000/svg">
<g clip-path="url(#clip0_361_352)">
<path d="M1500 0H0V819H1500V0Z" fill="#0D0D12"/>
<path d="M317.814 360.454C302.406 360.454 289.911 373.02 289.911 388.517C289.911 404.015 302.405 416.58 317.814 416.58C333.223 416.58 345.717 404.015 345.717 388.517C345.717 373.02 333.221 360.454 317.814 360.454Z" fill="white"/>
<path d="M275.62 380.625C277.185 372.199 281.261 364.444 287.478 358.251L287.577 358.153C287.71 358.023 287.843 357.892 287.976 357.763C288.103 357.643 288.229 357.522 288.356 357.402L288.479 357.286C296.43 349.887 306.783 345.812 317.632 345.81H317.641C328.48 345.81 338.828 349.877 346.777 357.261L346.925 357.4C347.045 357.512 347.165 357.626 347.283 357.74C347.41 357.862 347.536 357.984 347.663 358.11L347.781 358.225C354.016 364.424 358.099 372.188 359.667 380.623H378.234C377.983 378.669 377.7 376.733 377.262 374.823L376.858 373.254C376.11 370.361 375.138 367.495 373.968 364.737C370.886 357.474 366.478 350.952 360.858 345.35L360.833 345.326C355.223 339.724 348.688 335.324 341.412 332.25C338.647 331.083 335.775 330.112 332.875 329.369L331.303 328.965C326.852 327.95 322.264 327.5 317.642 327.5H317.629C312.984 327.5 308.375 327.957 303.901 328.982L302.328 329.387C299.443 330.132 296.588 331.098 293.841 332.26C286.566 335.336 280.034 339.738 274.427 345.343C274.077 345.693 273.723 346.056 273.375 346.42C268.251 351.779 264.19 357.947 261.305 364.755C260.135 367.515 259.164 370.383 258.418 373.278L258.014 374.846C257.579 376.75 257.298 378.679 257.048 380.625H275.62Z" fill="white"/>
<path d="M378.278 395.968H359.724C358.381 403.489 355.026 410.568 349.949 416.425L349.93 416.447C349.787 416.611 349.642 416.775 349.499 416.936C349.403 417.043 349.306 417.15 349.206 417.257C349.148 417.321 349.088 417.386 349.03 417.448C345.061 421.724 340.356 425.091 335.051 427.459C329.558 429.908 323.704 431.152 317.647 431.154H317.639C306.527 431.154 295.987 426.908 287.968 419.199C287.866 419.102 287.766 419.003 287.665 418.905L287.473 418.717C281.164 412.43 277.062 404.537 275.549 395.97H257C257.256 398.069 257.558 400.151 258.029 402.202L258.435 403.772C259.181 406.652 260.15 409.502 261.313 412.244C264.395 419.506 268.805 426.027 274.42 431.624C274.698 431.901 274.996 432.192 275.359 432.539C280.763 437.719 286.989 441.819 293.866 444.724C296.613 445.885 299.466 446.849 302.351 447.592L303.925 447.998C308.394 449.021 313.001 449.474 317.64 449.474H317.652C322.279 449.474 326.87 449.021 331.325 448.004L332.896 447.599C335.795 446.854 338.665 445.883 341.428 444.714C348.687 441.645 355.206 437.258 360.804 431.673L360.901 431.593L360.931 431.547C366.516 425.96 370.905 419.457 373.973 412.219C375.135 409.477 376.102 406.627 376.846 403.749L377.252 402.178C377.722 400.134 378.02 398.061 378.276 395.968H378.278Z" fill="white"/>
<path d="M409.746 364.914V349.749H474.677V364.914H451.383V427.011H433.078V364.914H409.746Z" fill="white"/>
<path d="M481.632 427.011V349.749H513.366C519.118 349.749 524.081 350.792 528.258 352.88C532.459 354.942 535.697 357.91 537.973 361.783C540.248 365.631 541.386 370.196 541.386 375.478C541.386 380.835 540.223 385.387 537.898 389.134C535.572 392.857 532.271 395.699 527.995 397.66C523.719 399.597 518.655 400.565 512.803 400.565H492.735V385.852H509.352C512.153 385.852 514.491 385.487 516.367 384.758C518.267 384.004 519.705 382.872 520.681 381.363C521.656 379.829 522.143 377.867 522.143 375.478C522.143 373.088 521.656 371.114 520.681 369.555C519.705 367.97 518.267 366.788 516.367 366.008C514.466 365.204 512.128 364.801 509.352 364.801H500.2V427.011H481.632ZM524.882 391.7L544.012 427.011H523.756L505.001 391.7H524.882Z" fill="white"/>
<path d="M595.933 349.749H614.463V399.584C614.463 405.344 613.1 410.361 610.374 414.637C607.649 418.887 603.848 422.182 598.971 424.521C594.095 426.835 588.431 427.992 581.979 427.992C575.452 427.992 569.751 426.835 564.874 424.521C559.998 422.182 556.21 418.887 553.509 414.637C550.808 410.361 549.458 405.344 549.458 399.584V349.749H568.025V397.962C568.025 400.628 568.6 403.005 569.751 405.092C570.926 407.18 572.564 408.815 574.665 409.997C576.765 411.179 579.203 411.77 581.979 411.77C584.755 411.77 587.181 411.179 589.256 409.997C591.357 408.815 592.995 407.18 594.17 405.092C595.345 403.005 595.933 400.628 595.933 397.962V349.749Z" fill="white"/>
<path d="M623.988 427.011V349.749H676.427V364.914H642.556V380.759H673.089V395.963H642.556V427.011H623.988Z" fill="white"/>
<path d="M690.369 428.105C687.669 428.105 685.355 427.149 683.43 425.238C681.529 423.327 680.592 421.013 680.617 418.296C680.592 415.63 681.529 413.354 683.43 411.468C685.355 409.557 687.669 408.601 690.369 408.601C692.92 408.601 695.171 409.557 697.121 411.468C699.097 413.354 700.097 415.63 700.122 418.296C700.097 420.107 699.622 421.755 698.697 423.238C697.796 424.722 696.608 425.904 695.133 426.785C693.683 427.665 692.095 428.105 690.369 428.105Z" fill="white"/>
<path d="M775.506 349.749V427.011H759.751L729.18 382.419H728.693V427.011H710.125V349.749H726.105L756.338 394.265H756.976V349.749H775.506Z" fill="white"/>
<path d="M785.068 427.011V349.749H838.633V364.914H803.636V380.759H835.895V395.963H803.636V411.845H838.633V427.011H785.068Z" fill="white"/>
<path d="M845.635 364.914V349.749H910.566V364.914H887.272V427.011H868.967V364.914H845.635Z" fill="white"/>
<path d="M935.939 427.011L913.583 349.749H934.101L945.691 400.377H946.329L959.57 349.749H976.3L989.541 400.49H990.179L1001.81 349.749H1022.29L999.969 427.011H982.076L968.235 380.156H967.635L953.794 427.011H935.939Z" fill="white"/>
<path d="M1095.81 388.38C1095.81 396.881 1094.19 404.086 1090.94 409.997C1087.69 415.907 1083.29 420.396 1077.73 423.465C1072.21 426.533 1066.01 428.067 1059.13 428.067C1052.23 428.067 1046.01 426.521 1040.49 423.427C1034.96 420.333 1030.57 415.844 1027.32 409.959C1024.09 404.049 1022.48 396.856 1022.48 388.38C1022.48 379.879 1024.09 372.673 1027.32 366.763C1030.57 360.853 1034.96 356.363 1040.49 353.295C1046.01 350.226 1052.23 348.692 1059.13 348.692C1066.01 348.692 1072.21 350.226 1077.73 353.295C1083.29 356.363 1087.69 360.853 1090.94 366.763C1094.19 372.673 1095.81 379.879 1095.81 388.38ZM1076.83 388.38C1076.83 383.35 1076.12 379.099 1074.7 375.628C1073.3 372.158 1071.27 369.529 1068.62 367.744C1065.99 365.958 1062.83 365.065 1059.13 365.065C1055.45 365.065 1052.29 365.958 1049.64 367.744C1046.99 369.529 1044.95 372.158 1043.52 375.628C1042.12 379.099 1041.42 383.35 1041.42 388.38C1041.42 393.41 1042.12 397.66 1043.52 401.131C1044.95 404.602 1046.99 407.23 1049.64 409.016C1052.29 410.801 1055.45 411.694 1059.13 411.694C1062.83 411.694 1065.99 410.801 1068.62 409.016C1071.27 407.23 1073.3 404.602 1074.7 401.131C1076.12 397.66 1076.83 393.41 1076.83 388.38Z" fill="white"/>
<path d="M1104.54 427.011V349.749H1136.28C1142.03 349.749 1146.99 350.792 1151.17 352.88C1155.37 354.942 1158.61 357.91 1160.88 361.783C1163.16 365.631 1164.3 370.196 1164.3 375.478C1164.3 380.835 1163.13 385.387 1160.81 389.134C1158.48 392.857 1155.18 395.699 1150.91 397.66C1146.63 399.597 1141.57 400.565 1135.71 400.565H1115.65V385.852H1132.26C1135.06 385.852 1137.4 385.487 1139.28 384.758C1141.18 384.004 1142.62 382.872 1143.59 381.363C1144.57 379.829 1145.05 377.867 1145.05 375.478C1145.05 373.088 1144.57 371.114 1143.59 369.555C1142.62 367.97 1141.18 366.788 1139.28 366.008C1137.38 365.204 1135.04 364.801 1132.26 364.801H1123.11V427.011H1104.54ZM1147.79 391.7L1166.92 427.011H1146.67L1127.91 391.7H1147.79Z" fill="white"/>
<path d="M1172.37 427.011V349.749H1190.94V382.419H1191.95L1217.34 349.749H1239.21L1211.98 384.23L1239.7 427.011H1217.49L1198.36 396.642L1190.94 406.073V427.011H1172.37Z" fill="white"/>
<path d="M413.495 466.578H981.941" stroke="url(#paint0_linear_361_352)" stroke-width="4.6028"/>
<path d="M991.147 482.583V451.619H996.62V463.201H996.847C997.129 462.636 997.527 462.036 998.041 461.401C998.555 460.756 999.251 460.207 1000.13 459.753C1001 459.29 1002.12 459.058 1003.48 459.058C1005.28 459.058 1006.9 459.516 1008.34 460.434C1009.79 461.341 1010.94 462.686 1011.78 464.471C1012.64 466.245 1013.07 468.422 1013.07 471.002C1013.07 473.552 1012.65 475.719 1011.82 477.503C1010.98 479.287 1009.84 480.648 1008.4 481.586C1006.96 482.523 1005.32 482.992 1003.5 482.992C1002.17 482.992 1001.06 482.77 1000.19 482.326C999.311 481.883 998.606 481.349 998.072 480.724C997.547 480.089 997.139 479.489 996.847 478.925H996.529V482.583H991.147ZM996.514 470.972C996.514 472.474 996.726 473.789 997.149 474.918C997.583 476.047 998.203 476.929 999.009 477.564C999.825 478.189 1000.81 478.501 1001.97 478.501C1003.18 478.501 1004.19 478.179 1005.01 477.534C1005.83 476.878 1006.44 475.986 1006.86 474.857C1007.28 473.719 1007.49 472.423 1007.49 470.972C1007.49 469.53 1007.28 468.25 1006.87 467.132C1006.46 466.013 1005.84 465.136 1005.03 464.501C1004.21 463.866 1003.19 463.548 1001.97 463.548C1000.8 463.548 999.81 463.856 998.994 464.471C998.177 465.085 997.558 465.947 997.134 467.056C996.721 468.165 996.514 469.47 996.514 470.972Z" fill="white"/>
<path d="M1020.33 491.292C1019.59 491.292 1018.9 491.232 1018.26 491.111C1017.64 491 1017.14 490.869 1016.77 490.718L1018.04 486.454C1018.83 486.686 1019.54 486.797 1020.17 486.787C1020.79 486.777 1021.34 486.58 1021.82 486.197C1022.3 485.824 1022.71 485.199 1023.04 484.322L1023.51 483.067L1015.09 459.36H1020.89L1026.25 476.899H1026.49L1031.86 459.36H1037.68L1028.38 485.396C1027.94 486.625 1027.37 487.679 1026.65 488.556C1025.94 489.443 1025.06 490.118 1024.02 490.582C1023 491.055 1021.77 491.292 1020.33 491.292Z" fill="white"/>
<mask id="mask0_361_352" style="mask-type:luminance" maskUnits="userSpaceOnUse" x="1046" y="449" width="192" height="35">
<path d="M1237.67 449.665H1046.38V483.491H1237.67V449.665Z" fill="white"/>
</mask>
<g mask="url(#mask0_361_352)">
<path d="M1160.13 482.988H1155.65C1155.52 481.862 1155.4 480.744 1155.26 479.581C1155.2 479.644 1155.15 479.673 1155.13 479.712C1153.75 481.781 1151.77 482.905 1149.37 483.323C1143.53 484.343 1138.15 480.608 1136.99 474.718C1136.39 471.683 1136.53 468.696 1137.88 465.861C1139.44 462.579 1142.04 460.571 1145.61 459.929C1148.39 459.43 1151.02 459.855 1153.31 461.615C1153.94 462.101 1154.43 462.769 1154.99 463.357C1155.07 463.451 1155.14 463.562 1155.26 463.732C1155.41 462.631 1155.55 461.609 1155.69 460.587C1155.72 460.417 1155.7 460.234 1155.97 460.235C1157.35 460.242 1158.72 460.238 1160.12 460.238V482.988H1160.13ZM1155.27 471.526C1155.23 471.194 1155.2 470.735 1155.13 470.282C1154.55 466.253 1150.96 463.956 1147.68 464.437C1145.31 464.785 1143.58 465.992 1142.52 468.13C1141.71 469.775 1141.64 471.519 1141.92 473.307C1142.7 478.151 1148.29 480.547 1152.31 477.731C1154.41 476.26 1155.21 474.129 1155.27 471.524V471.526Z" fill="white"/>
<path d="M1213.05 471.687C1213.02 478.479 1207.89 483.524 1201.06 483.487C1194.28 483.45 1189.19 478.32 1189.23 471.551C1189.27 464.789 1194.44 459.711 1201.25 459.753C1207.98 459.794 1213.09 464.961 1213.05 471.687ZM1207.98 471.322C1207.88 470.809 1207.8 469.853 1207.5 468.972C1206.65 466.422 1204.88 464.827 1202.19 464.428C1199.65 464.052 1197.47 464.804 1195.87 466.858C1194.27 468.92 1193.98 471.301 1194.6 473.765C1195.98 479.214 1201.94 480.144 1205.28 477.518C1207.14 476.054 1207.89 474.058 1207.98 471.322Z" fill="white"/>
<path d="M1221.8 482.985H1216.73V460.268H1221.22C1221.36 461.379 1221.5 462.507 1221.66 463.709C1221.91 463.364 1222.12 463.061 1222.36 462.777C1223.74 461.088 1225.55 460.163 1227.69 459.852C1229.72 459.555 1231.67 459.86 1233.46 460.908C1235.61 462.165 1236.81 464.115 1237.32 466.495C1237.53 467.476 1237.64 468.497 1237.65 469.5C1237.69 473.885 1237.67 478.271 1237.66 482.658C1237.66 482.752 1237.66 482.844 1237.65 482.969H1232.53V482.439C1232.53 478.538 1232.53 474.639 1232.52 470.739C1232.52 469.686 1232.43 468.648 1232.08 467.634C1230.95 464.348 1227.28 463.581 1224.78 465.16C1222.66 466.492 1221.81 468.503 1221.8 470.923C1221.78 474.769 1221.8 478.616 1221.8 482.462V482.985Z" fill="white"/>
<path d="M1105.69 482.989H1101.2C1101.06 481.854 1100.92 480.725 1100.76 479.498C1100.61 479.719 1100.5 479.877 1100.39 480.033C1098.45 482.696 1095.78 483.723 1092.59 483.428C1088.49 483.049 1085.83 480.171 1085.16 476.163C1085.01 475.264 1084.96 474.338 1084.96 473.424C1084.94 469.199 1084.95 464.975 1084.95 460.75C1084.95 460.593 1084.95 460.436 1084.95 460.258H1090.09C1090.09 460.43 1090.09 460.587 1090.09 460.744C1090.09 464.712 1090.09 468.679 1090.09 472.648C1090.09 473.748 1090.22 474.822 1090.62 475.859C1091.77 478.859 1095.28 479.644 1097.69 478.092C1099.74 476.767 1100.59 474.794 1100.61 472.421C1100.63 468.939 1100.62 465.458 1100.62 461.975C1100.62 461.411 1100.62 460.847 1100.62 460.261H1105.69V482.989Z" fill="white"/>
<path d="M1061.82 482.979H1056.61V454.824H1046.38V449.982H1072.01V454.795H1061.82V482.979H1061.82Z" fill="white"/>
<path d="M1113.02 464.471H1108.6V460.241H1113C1113 459.415 1113 458.636 1113 457.857C1113 455.981 1113.4 454.217 1114.49 452.657C1115.63 451.031 1117.22 450.13 1119.15 449.8C1120.53 449.565 1121.89 449.647 1123.25 449.953C1123.37 449.981 1123.55 450.13 1123.55 450.224C1123.57 451.518 1123.56 452.811 1123.56 454.163C1123.38 454.147 1123.22 454.116 1123.07 454.123C1122.23 454.167 1121.36 454.118 1120.54 454.29C1119.14 454.585 1118.26 455.694 1118.14 457.23C1118.06 458.207 1118.12 459.195 1118.12 460.23H1124.48V464.451H1118.11V482.972H1113.02V464.471H1113.02Z" fill="white"/>
<path d="M1166.67 464.468H1162.59V460.256H1166.61V452.647H1171.76V460.233H1178.39V464.456H1171.82C1171.8 464.571 1171.77 464.647 1171.77 464.723C1171.77 468.151 1171.78 471.579 1171.79 475.006C1171.79 475.811 1171.94 476.594 1172.39 477.284C1172.96 478.163 1173.84 478.52 1174.83 478.61C1175.75 478.696 1176.68 478.675 1177.61 478.701C1177.72 478.704 1177.82 478.701 1177.95 478.701V482.888C1176.95 483.161 1175.92 483.316 1174.87 483.331C1173.12 483.355 1171.45 483.002 1169.98 482.023C1168.1 480.776 1167.11 478.965 1166.79 476.762C1166.7 476.124 1166.68 475.471 1166.68 474.826C1166.67 471.561 1166.67 468.295 1166.67 465.028V464.463L1166.67 464.468Z" fill="white"/>
<path d="M1127.77 449.964H1132.82V482.968H1127.77V449.964Z" fill="white"/>
<path d="M1081.66 464.765C1080.81 464.765 1079.98 464.722 1079.16 464.774C1076.86 464.921 1075.47 466.309 1075.27 468.637C1075.22 469.201 1075.2 469.768 1075.2 470.333C1075.19 474.381 1075.19 478.429 1075.19 482.477C1075.19 482.636 1075.19 482.794 1075.19 482.977H1070.09C1070.09 482.837 1070.09 482.696 1070.09 482.553C1070.09 477.898 1070.05 473.242 1070.1 468.588C1070.12 466.23 1070.79 464.064 1072.45 462.302C1073.85 460.823 1075.6 460.083 1077.59 459.836C1078.84 459.682 1080.07 459.757 1081.29 459.995C1081.57 460.048 1081.7 460.139 1081.7 460.46C1081.68 461.769 1081.69 463.078 1081.69 464.386C1081.69 464.492 1081.67 464.599 1081.66 464.767V464.765Z" fill="white"/>
<path d="M1181.22 460.253H1186.25V482.975H1181.22V460.253Z" fill="white"/>
<path d="M1180.46 452.936C1180.45 451.13 1181.89 449.712 1183.74 449.709C1185.57 449.706 1187.01 451.167 1187.01 453.012C1187 454.734 1185.54 456.156 1183.77 456.179C1181.93 456.203 1180.47 454.774 1180.46 452.936Z" fill="white"/>
</g>
</g>
<defs>
<linearGradient id="paint0_linear_361_352" x1="nan" y1="nan" x2="nan" y2="nan" gradientUnits="userSpaceOnUse">
<stop stop-color="white" stop-opacity="0"/>
<stop offset="1" stop-color="white"/>
</linearGradient>
<clipPath id="clip0_361_352">
<rect width="1500" height="819" fill="white"/>
</clipPath>
</defs>
</svg>
