<svg width="1500" height="779" viewBox="0 0 1500 779" fill="none" xmlns="http://www.w3.org/2000/svg">
<path d="M318.82 339.954C303.412 339.954 290.917 352.52 290.917 368.017C290.917 383.515 303.411 396.08 318.82 396.08C334.229 396.08 346.723 383.515 346.723 368.017C346.723 352.52 334.227 339.954 318.82 339.954Z" fill="#0407FF"/>
<path d="M276.626 360.125C278.191 351.699 282.266 343.944 288.484 337.751L288.583 337.653C288.716 337.523 288.849 337.392 288.982 337.263C289.109 337.143 289.235 337.022 289.362 336.902L289.485 336.786C297.436 329.387 307.789 325.312 318.638 325.31H318.646C329.486 325.31 339.834 329.377 347.783 336.761L347.931 336.9C348.051 337.012 348.171 337.126 348.289 337.24C348.416 337.362 348.542 337.484 348.669 337.61L348.787 337.725C355.021 343.924 359.105 351.688 360.673 360.123H379.24C378.989 358.169 378.706 356.233 378.268 354.323L377.864 352.754C377.116 349.861 376.144 346.995 374.974 344.237C371.892 336.974 367.484 330.452 361.864 324.85L361.839 324.826C356.228 319.224 349.694 314.824 342.418 311.75C339.652 310.583 336.781 309.612 333.881 308.869L332.309 308.465C327.858 307.45 323.269 307 318.648 307H318.635C313.99 307 309.38 307.457 304.907 308.482L303.334 308.887C300.449 309.632 297.594 310.598 294.847 311.76C287.572 314.836 281.04 319.238 275.433 324.843C275.083 325.193 274.728 325.556 274.38 325.92C269.256 331.279 265.196 337.447 262.311 344.255C261.141 347.015 260.17 349.883 259.424 352.778L259.02 354.346C258.585 356.25 258.304 358.179 258.054 360.125H276.626Z" fill="#0407FF"/>
<path d="M379.284 375.468H360.73C359.386 382.989 356.032 390.068 350.954 395.925L350.936 395.947C350.793 396.111 350.648 396.275 350.505 396.436C350.408 396.543 350.312 396.65 350.212 396.757C350.154 396.821 350.094 396.886 350.035 396.948C346.067 401.224 341.362 404.591 336.057 406.959C330.564 409.408 324.709 410.652 318.653 410.654H318.645C307.532 410.654 296.993 406.408 288.974 398.699C288.872 398.602 288.772 398.503 288.671 398.405L288.479 398.217C282.17 391.93 278.068 384.037 276.555 375.47H258.006C258.262 377.569 258.564 379.651 259.035 381.702L259.441 383.272C260.187 386.152 261.156 389.002 262.319 391.744C265.401 399.006 269.811 405.527 275.426 411.124C275.704 411.401 276.002 411.692 276.365 412.039C281.769 417.219 287.995 421.319 294.872 424.224C297.619 425.385 300.472 426.349 303.357 427.092L304.93 427.498C309.4 428.521 314.007 428.974 318.646 428.974H318.658C323.284 428.974 327.876 428.521 332.331 427.504L333.902 427.099C336.801 426.354 339.671 425.383 342.434 424.214C349.692 421.145 356.212 416.758 361.81 411.173L361.907 411.093L361.937 411.047C367.522 405.46 371.91 398.957 374.979 391.719C376.141 388.977 377.108 386.127 377.852 383.249L378.258 381.678C378.728 379.634 379.026 377.561 379.282 375.468H379.284Z" fill="#0407FF"/>
<path d="M410.752 344.414V329.249H475.683V344.414H452.389V406.511H434.084V344.414H410.752Z" fill="#090909"/>
<path d="M482.638 406.511V329.249H514.372C520.123 329.249 525.087 330.292 529.263 332.38C533.465 334.442 536.703 337.41 538.979 341.283C541.254 345.131 542.392 349.696 542.392 354.978C542.392 360.335 541.229 364.887 538.904 368.634C536.578 372.357 533.277 375.199 529.001 377.16C524.725 379.097 519.661 380.065 513.809 380.065H493.741V365.352H510.358C513.159 365.352 515.497 364.987 517.373 364.258C519.273 363.504 520.711 362.372 521.686 360.863C522.662 359.329 523.149 357.367 523.149 354.978C523.149 352.588 522.662 350.614 521.686 349.055C520.711 347.47 519.273 346.288 517.373 345.508C515.472 344.704 513.134 344.301 510.358 344.301H501.206V406.511H482.638ZM525.888 371.2L545.018 406.511H524.762L506.007 371.2H525.888Z" fill="#090909"/>
<path d="M596.939 329.249H615.469V379.084C615.469 384.844 614.106 389.861 611.38 394.137C608.655 398.387 604.853 401.682 599.977 404.021C595.101 406.335 589.437 407.492 582.985 407.492C576.458 407.492 570.757 406.335 565.88 404.021C561.004 401.682 557.215 398.387 554.515 394.137C551.814 389.861 550.464 384.844 550.464 379.084V329.249H569.031V377.462C569.031 380.128 569.606 382.505 570.757 384.592C571.932 386.68 573.57 388.315 575.67 389.497C577.771 390.679 580.209 391.27 582.985 391.27C585.761 391.27 588.186 390.679 590.262 389.497C592.363 388.315 594.001 386.68 595.176 384.592C596.351 382.505 596.939 380.128 596.939 377.462V329.249Z" fill="#090909"/>
<path d="M624.994 406.511V329.249H677.433V344.414H643.561V360.259H674.095V375.463H643.561V406.511H624.994Z" fill="#090909"/>
<path d="M691.375 407.605C688.674 407.605 686.361 406.649 684.436 404.738C682.535 402.826 681.597 400.513 681.622 397.796C681.597 395.13 682.535 392.854 684.436 390.968C686.361 389.057 688.674 388.101 691.375 388.101C693.926 388.101 696.176 389.057 698.127 390.968C700.103 392.854 701.103 395.13 701.128 397.796C701.103 399.607 700.628 401.255 699.702 402.738C698.802 404.222 697.614 405.404 696.139 406.285C694.689 407.165 693.101 407.605 691.375 407.605Z" fill="#090909"/>
<path d="M776.511 329.249V406.511H760.757L730.186 361.919H729.699V406.511H711.131V329.249H727.11L757.344 373.765H757.981V329.249H776.511Z" fill="#090909"/>
<path d="M786.074 406.511V329.249H839.639V344.414H804.642V360.259H836.9V375.463H804.642V391.345H839.639V406.511H786.074Z" fill="#090909"/>
<path d="M846.641 344.414V329.249H911.571V344.414H888.278V406.511H869.973V344.414H846.641Z" fill="#090909"/>
<path d="M936.945 406.511L914.588 329.249H935.107L946.697 379.877H947.335L960.576 329.249H977.306L990.547 379.99H991.184L1002.81 329.249H1023.29L1000.97 406.511H983.082L969.241 359.656H968.641L954.8 406.511H936.945Z" fill="#090909"/>
<path d="M1096.82 367.88C1096.82 376.381 1095.19 383.586 1091.94 389.497C1088.69 395.407 1084.29 399.896 1078.74 402.965C1073.21 406.033 1067.01 407.567 1060.13 407.567C1053.23 407.567 1047.02 406.021 1041.49 402.927C1035.97 399.833 1031.58 395.344 1028.33 389.459C1025.1 383.549 1023.49 376.356 1023.49 367.88C1023.49 359.379 1025.1 352.173 1028.33 346.263C1031.58 340.353 1035.97 335.863 1041.49 332.795C1047.02 329.726 1053.23 328.192 1060.13 328.192C1067.01 328.192 1073.21 329.726 1078.74 332.795C1084.29 335.863 1088.69 340.353 1091.94 346.263C1095.19 352.173 1096.82 359.379 1096.82 367.88ZM1077.84 367.88C1077.84 362.85 1077.13 358.599 1075.7 355.128C1074.3 351.658 1072.28 349.029 1069.62 347.244C1067 345.458 1063.84 344.565 1060.13 344.565C1056.46 344.565 1053.3 345.458 1050.64 347.244C1047.99 349.029 1045.96 351.658 1044.53 355.128C1043.13 358.599 1042.43 362.85 1042.43 367.88C1042.43 372.91 1043.13 377.16 1044.53 380.631C1045.96 384.102 1047.99 386.73 1050.64 388.516C1053.3 390.301 1056.46 391.194 1060.13 391.194C1063.84 391.194 1067 390.301 1069.62 388.516C1072.28 386.73 1074.3 384.102 1075.7 380.631C1077.13 377.16 1077.84 372.91 1077.84 367.88Z" fill="#090909"/>
<path d="M1105.55 406.511V329.249H1137.28C1143.03 329.249 1148 330.292 1152.17 332.38C1156.37 334.442 1159.61 337.41 1161.89 341.283C1164.16 345.131 1165.3 349.696 1165.3 354.978C1165.3 360.335 1164.14 364.887 1161.81 368.634C1159.49 372.357 1156.19 375.199 1151.91 377.16C1147.63 379.097 1142.57 380.065 1136.72 380.065H1116.65V365.352H1133.27C1136.07 365.352 1138.41 364.987 1140.28 364.258C1142.18 363.504 1143.62 362.372 1144.6 360.863C1145.57 359.329 1146.06 357.367 1146.06 354.978C1146.06 352.588 1145.57 350.614 1144.6 349.055C1143.62 347.47 1142.18 346.288 1140.28 345.508C1138.38 344.704 1136.04 344.301 1133.27 344.301H1124.12V406.511H1105.55ZM1148.8 371.2L1167.93 406.511H1147.67L1128.92 371.2H1148.8Z" fill="#090909"/>
<path d="M1173.37 406.511V329.249H1191.94V361.919H1192.95L1218.35 329.249H1240.22L1212.98 363.73L1240.7 406.511H1218.5L1199.37 376.142L1191.94 385.573V406.511H1173.37Z" fill="#090909"/>
<path d="M414.501 446.078H982.947" stroke="url(#paint0_linear_361_303)" stroke-width="4.6028"/>
<path d="M992.153 462.083V431.119H997.626V442.701H997.853C998.135 442.136 998.533 441.536 999.047 440.901C999.561 440.256 1000.26 439.707 1001.13 439.253C1002.01 438.79 1003.13 438.558 1004.49 438.558C1006.28 438.558 1007.9 439.016 1009.34 439.934C1010.79 440.841 1011.94 442.186 1012.79 443.971C1013.65 445.745 1014.08 447.922 1014.08 450.502C1014.08 453.052 1013.66 455.219 1012.82 457.003C1011.98 458.787 1010.84 460.148 1009.4 461.086C1007.96 462.023 1006.33 462.492 1004.5 462.492C1003.17 462.492 1002.07 462.27 1001.19 461.826C1000.32 461.383 999.612 460.849 999.077 460.224C998.553 459.589 998.145 458.989 997.853 458.425H997.535V462.083H992.153ZM997.52 450.472C997.52 451.974 997.732 453.289 998.155 454.418C998.589 455.547 999.209 456.429 1000.01 457.064C1000.83 457.689 1001.82 458.001 1002.98 458.001C1004.19 458.001 1005.2 457.679 1006.02 457.034C1006.83 456.378 1007.45 455.486 1007.86 454.357C1008.28 453.219 1008.5 451.923 1008.5 450.472C1008.5 449.03 1008.29 447.75 1007.88 446.632C1007.46 445.513 1006.85 444.636 1006.03 444.001C1005.22 443.366 1004.2 443.048 1002.98 443.048C1001.81 443.048 1000.82 443.356 1000 443.971C999.183 444.585 998.563 445.447 998.14 446.556C997.727 447.665 997.52 448.97 997.52 450.472Z" fill="#090909"/>
<path d="M1021.34 470.792C1020.59 470.792 1019.9 470.732 1019.27 470.611C1018.64 470.5 1018.14 470.369 1017.77 470.218L1019.04 465.954C1019.84 466.186 1020.55 466.297 1021.17 466.287C1021.8 466.277 1022.35 466.08 1022.82 465.697C1023.31 465.324 1023.71 464.699 1024.05 463.822L1024.52 462.567L1016.09 438.86H1021.9L1027.25 456.399H1027.49L1032.86 438.86H1038.68L1029.38 464.896C1028.95 466.125 1028.38 467.179 1027.66 468.056C1026.94 468.943 1026.07 469.618 1025.03 470.082C1024 470.555 1022.77 470.792 1021.34 470.792Z" fill="#090909"/>
<mask id="mask0_361_303" style="mask-type:luminance" maskUnits="userSpaceOnUse" x="1047" y="429" width="192" height="34">
<path d="M1238.67 429.165H1047.39V462.991H1238.67V429.165Z" fill="white"/>
</mask>
<g mask="url(#mask0_361_303)">
<path d="M1161.13 462.488H1156.66C1156.53 461.362 1156.4 460.244 1156.27 459.081C1156.2 459.144 1156.16 459.173 1156.13 459.212C1154.76 461.281 1152.78 462.405 1150.38 462.823C1144.54 463.843 1139.16 460.108 1138 454.218C1137.4 451.183 1137.54 448.196 1138.88 445.361C1140.44 442.079 1143.04 440.071 1146.62 439.429C1149.39 438.93 1152.03 439.355 1154.32 441.115C1154.95 441.601 1155.44 442.269 1155.99 442.857C1156.08 442.951 1156.15 443.062 1156.27 443.232C1156.42 442.131 1156.56 441.109 1156.7 440.087C1156.72 439.917 1156.71 439.734 1156.98 439.735C1158.35 439.742 1159.72 439.738 1161.13 439.738V462.488H1161.13ZM1156.27 451.026C1156.24 450.694 1156.2 450.235 1156.14 449.782C1155.55 445.753 1151.97 443.456 1148.69 443.937C1146.32 444.285 1144.58 445.492 1143.53 447.63C1142.71 449.275 1142.64 451.019 1142.93 452.807C1143.7 457.651 1149.3 460.047 1153.31 457.231C1155.42 455.76 1156.21 453.629 1156.27 451.024V451.026Z" fill="#090909"/>
<path d="M1214.06 451.187C1214.02 457.979 1208.9 463.024 1202.06 462.987C1195.28 462.95 1190.2 457.82 1190.24 451.051C1190.27 444.289 1195.45 439.211 1202.26 439.253C1208.98 439.294 1214.09 444.461 1214.06 451.187ZM1208.98 450.822C1208.88 450.309 1208.81 449.353 1208.51 448.472C1207.65 445.922 1205.88 444.327 1203.19 443.928C1200.66 443.552 1198.48 444.304 1196.88 446.358C1195.27 448.42 1194.98 450.801 1195.61 453.265C1196.99 458.714 1202.95 459.644 1206.28 457.018C1208.14 455.554 1208.9 453.558 1208.98 450.822Z" fill="#090909"/>
<path d="M1222.8 462.485H1217.74V439.768H1222.23C1222.37 440.879 1222.51 442.007 1222.66 443.209C1222.92 442.864 1223.13 442.561 1223.36 442.277C1224.74 440.588 1226.56 439.663 1228.69 439.352C1230.73 439.055 1232.68 439.36 1234.47 440.408C1236.61 441.665 1237.81 443.615 1238.32 445.995C1238.53 446.976 1238.65 447.997 1238.66 449C1238.69 453.385 1238.67 457.771 1238.67 462.158C1238.67 462.252 1238.66 462.344 1238.66 462.469H1233.53V461.939C1233.53 458.038 1233.54 454.139 1233.53 450.239C1233.53 449.186 1233.43 448.148 1233.09 447.134C1231.96 443.848 1228.29 443.081 1225.78 444.66C1223.67 445.992 1222.82 448.003 1222.81 450.423C1222.79 454.269 1222.8 458.116 1222.8 461.962V462.485Z" fill="#090909"/>
<path d="M1106.69 462.489H1102.21C1102.07 461.354 1101.92 460.225 1101.77 458.998C1101.61 459.219 1101.51 459.377 1101.39 459.533C1099.46 462.196 1096.78 463.223 1093.59 462.928C1089.5 462.549 1086.83 459.671 1086.17 455.663C1086.02 454.764 1085.97 453.838 1085.96 452.924C1085.94 448.699 1085.95 444.475 1085.95 440.25C1085.95 440.093 1085.95 439.936 1085.95 439.758H1091.1C1091.1 439.93 1091.1 440.087 1091.1 440.244C1091.1 444.212 1091.1 448.179 1091.1 452.148C1091.1 453.248 1091.22 454.322 1091.62 455.359C1092.78 458.359 1096.29 459.144 1098.69 457.592C1100.74 456.267 1101.6 454.294 1101.62 451.921C1101.64 448.439 1101.62 444.958 1101.62 441.475C1101.62 440.911 1101.62 440.347 1101.62 439.761H1106.69V462.489Z" fill="#090909"/>
<path d="M1062.83 462.479H1057.62V434.324H1047.39V429.482H1073.01V434.295H1062.83V462.479H1062.83Z" fill="#090909"/>
<path d="M1114.03 443.971H1109.6V439.741H1114C1114 438.915 1114 438.136 1114 437.357C1114 435.481 1114.41 433.717 1115.5 432.157C1116.63 430.531 1118.23 429.63 1120.16 429.3C1121.53 429.065 1122.9 429.147 1124.25 429.453C1124.37 429.481 1124.56 429.63 1124.56 429.724C1124.58 431.018 1124.57 432.311 1124.57 433.663C1124.38 433.647 1124.23 433.616 1124.08 433.623C1123.23 433.667 1122.37 433.618 1121.55 433.79C1120.15 434.085 1119.26 435.194 1119.14 436.73C1119.07 437.707 1119.13 438.695 1119.13 439.73H1125.48V443.951H1119.11V462.472H1114.02V443.971H1114.03Z" fill="#090909"/>
<path d="M1167.68 443.968H1163.6V439.756H1167.62V432.147H1172.76V439.733H1179.4V443.956H1172.83C1172.8 444.071 1172.77 444.147 1172.77 444.223C1172.78 447.651 1172.78 451.079 1172.8 454.506C1172.8 455.311 1172.95 456.094 1173.4 456.784C1173.96 457.663 1174.85 458.02 1175.83 458.11C1176.75 458.196 1177.69 458.175 1178.62 458.201C1178.72 458.204 1178.83 458.201 1178.96 458.201V462.388C1177.95 462.661 1176.92 462.816 1175.87 462.831C1174.12 462.855 1172.46 462.502 1170.99 461.523C1169.11 460.276 1168.11 458.465 1167.8 456.262C1167.71 455.624 1167.69 454.971 1167.68 454.326C1167.67 451.061 1167.68 447.795 1167.68 444.528V443.963L1167.68 443.968Z" fill="#090909"/>
<path d="M1128.78 429.464H1133.82V462.468H1128.78V429.464Z" fill="#090909"/>
<path d="M1082.67 444.265C1081.81 444.265 1080.99 444.222 1080.17 444.274C1077.86 444.421 1076.48 445.809 1076.28 448.137C1076.23 448.701 1076.2 449.268 1076.2 449.833C1076.19 453.881 1076.2 457.929 1076.2 461.977C1076.2 462.136 1076.2 462.294 1076.2 462.477H1071.09C1071.09 462.337 1071.09 462.196 1071.09 462.053C1071.09 457.398 1071.06 452.742 1071.1 448.088C1071.12 445.73 1071.8 443.564 1073.46 441.802C1074.85 440.323 1076.61 439.583 1078.6 439.336C1079.84 439.182 1081.07 439.257 1082.3 439.495C1082.58 439.548 1082.71 439.639 1082.7 439.96C1082.68 441.269 1082.69 442.578 1082.69 443.886C1082.69 443.992 1082.68 444.099 1082.67 444.267V444.265Z" fill="#090909"/>
<path d="M1182.22 439.753H1187.26V462.475H1182.22V439.753Z" fill="#090909"/>
<path d="M1181.47 432.436C1181.46 430.63 1182.9 429.212 1184.75 429.209C1186.58 429.206 1188.02 430.667 1188.01 432.512C1188 434.234 1186.55 435.656 1184.78 435.679C1182.93 435.703 1181.48 434.274 1181.47 432.436Z" fill="#090909"/>
</g>
<defs>
<linearGradient id="paint0_linear_361_303" x1="nan" y1="nan" x2="nan" y2="nan" gradientUnits="userSpaceOnUse">
<stop stop-color="#090909" stop-opacity="0"/>
<stop offset="1" stop-color="#090909"/>
</linearGradient>
</defs>
</svg>
