<svg width="1500" height="779" viewBox="0 0 1500 779" fill="none" xmlns="http://www.w3.org/2000/svg">
<path d="M318.814 340.454C303.406 340.454 290.911 353.02 290.911 368.517C290.911 384.015 303.405 396.58 318.814 396.58C334.223 396.58 346.717 384.015 346.717 368.517C346.717 353.02 334.221 340.454 318.814 340.454Z" fill="white"/>
<path d="M276.62 360.625C278.185 352.199 282.261 344.444 288.478 338.251L288.577 338.153C288.71 338.023 288.843 337.892 288.976 337.763C289.103 337.643 289.229 337.522 289.356 337.402L289.479 337.286C297.43 329.887 307.783 325.812 318.632 325.81H318.641C329.48 325.81 339.828 329.877 347.777 337.261L347.925 337.4C348.045 337.512 348.165 337.626 348.283 337.74C348.41 337.862 348.536 337.984 348.663 338.11L348.781 338.225C355.016 344.424 359.099 352.188 360.667 360.623H379.234C378.983 358.669 378.7 356.733 378.262 354.823L377.858 353.254C377.11 350.361 376.138 347.495 374.968 344.737C371.886 337.474 367.478 330.952 361.858 325.35L361.833 325.326C356.223 319.724 349.688 315.324 342.412 312.25C339.647 311.083 336.775 310.112 333.875 309.369L332.303 308.965C327.852 307.95 323.264 307.5 318.642 307.5H318.629C313.984 307.5 309.375 307.957 304.901 308.982L303.328 309.387C300.443 310.132 297.588 311.098 294.841 312.26C287.566 315.336 281.034 319.738 275.427 325.343C275.077 325.693 274.723 326.056 274.375 326.42C269.251 331.779 265.19 337.947 262.305 344.755C261.135 347.515 260.164 350.383 259.418 353.278L259.014 354.846C258.579 356.75 258.298 358.679 258.048 360.625H276.62Z" fill="white"/>
<path d="M379.278 375.968H360.724C359.381 383.489 356.026 390.568 350.949 396.425L350.93 396.447C350.787 396.611 350.642 396.775 350.499 396.936C350.403 397.043 350.306 397.15 350.206 397.257C350.148 397.321 350.088 397.386 350.03 397.448C346.061 401.724 341.356 405.091 336.051 407.459C330.558 409.908 324.704 411.152 318.647 411.154H318.639C307.527 411.154 296.987 406.908 288.968 399.199C288.866 399.102 288.766 399.003 288.665 398.905L288.473 398.717C282.164 392.43 278.062 384.537 276.549 375.97H258C258.256 378.069 258.558 380.151 259.029 382.202L259.435 383.772C260.181 386.652 261.15 389.502 262.313 392.244C265.395 399.506 269.805 406.027 275.42 411.624C275.698 411.901 275.996 412.192 276.359 412.539C281.763 417.719 287.989 421.819 294.866 424.724C297.613 425.885 300.466 426.849 303.351 427.592L304.925 427.998C309.394 429.021 314.001 429.474 318.64 429.474H318.652C323.279 429.474 327.87 429.021 332.325 428.004L333.896 427.599C336.795 426.854 339.665 425.883 342.428 424.714C349.687 421.645 356.206 417.258 361.804 411.673L361.901 411.593L361.931 411.547C367.516 405.96 371.905 399.457 374.973 392.219C376.135 389.477 377.102 386.627 377.846 383.749L378.252 382.178C378.722 380.134 379.02 378.061 379.276 375.968H379.278Z" fill="white"/>
<path d="M410.746 344.914V329.749H475.677V344.914H452.383V407.011H434.078V344.914H410.746Z" fill="white"/>
<path d="M482.632 407.011V329.749H514.366C520.118 329.749 525.081 330.792 529.258 332.88C533.459 334.942 536.697 337.91 538.973 341.783C541.248 345.631 542.386 350.196 542.386 355.478C542.386 360.835 541.223 365.387 538.898 369.134C536.572 372.857 533.271 375.699 528.995 377.66C524.719 379.597 519.655 380.565 513.803 380.565H493.735V365.852H510.352C513.153 365.852 515.491 365.487 517.367 364.758C519.267 364.004 520.705 362.872 521.681 361.363C522.656 359.829 523.143 357.867 523.143 355.478C523.143 353.088 522.656 351.114 521.681 349.555C520.705 347.97 519.267 346.788 517.367 346.008C515.466 345.204 513.128 344.801 510.352 344.801H501.2V407.011H482.632ZM525.882 371.7L545.012 407.011H524.756L506.001 371.7H525.882Z" fill="white"/>
<path d="M596.933 329.749H615.463V379.584C615.463 385.344 614.1 390.361 611.374 394.637C608.649 398.887 604.848 402.182 599.971 404.521C595.095 406.835 589.431 407.992 582.979 407.992C576.452 407.992 570.751 406.835 565.874 404.521C560.998 402.182 557.21 398.887 554.509 394.637C551.808 390.361 550.458 385.344 550.458 379.584V329.749H569.025V377.962C569.025 380.628 569.6 383.005 570.751 385.092C571.926 387.18 573.564 388.815 575.665 389.997C577.765 391.179 580.203 391.77 582.979 391.77C585.755 391.77 588.181 391.179 590.256 389.997C592.357 388.815 593.995 387.18 595.17 385.092C596.345 383.005 596.933 380.628 596.933 377.962V329.749Z" fill="white"/>
<path d="M624.988 407.011V329.749H677.427V344.914H643.556V360.759H674.089V375.963H643.556V407.011H624.988Z" fill="white"/>
<path d="M691.369 408.105C688.669 408.105 686.355 407.149 684.43 405.238C682.529 403.327 681.592 401.013 681.617 398.296C681.592 395.63 682.529 393.354 684.43 391.468C686.355 389.557 688.669 388.601 691.369 388.601C693.92 388.601 696.171 389.557 698.121 391.468C700.097 393.354 701.097 395.63 701.122 398.296C701.097 400.107 700.622 401.755 699.697 403.238C698.796 404.722 697.608 405.904 696.133 406.785C694.683 407.665 693.095 408.105 691.369 408.105Z" fill="white"/>
<path d="M776.506 329.749V407.011H760.751L730.18 362.419H729.693V407.011H711.125V329.749H727.105L757.338 374.265H757.976V329.749H776.506Z" fill="white"/>
<path d="M786.068 407.011V329.749H839.633V344.914H804.636V360.759H836.895V375.963H804.636V391.845H839.633V407.011H786.068Z" fill="white"/>
<path d="M846.635 344.914V329.749H911.566V344.914H888.272V407.011H869.967V344.914H846.635Z" fill="white"/>
<path d="M936.939 407.011L914.583 329.749H935.101L946.691 380.377H947.329L960.57 329.749H977.3L990.541 380.49H991.179L1002.81 329.749H1023.29L1000.97 407.011H983.076L969.235 360.156H968.635L954.794 407.011H936.939Z" fill="white"/>
<path d="M1096.81 368.38C1096.81 376.881 1095.19 384.086 1091.94 389.997C1088.69 395.907 1084.29 400.396 1078.73 403.465C1073.21 406.533 1067.01 408.067 1060.13 408.067C1053.23 408.067 1047.01 406.521 1041.49 403.427C1035.96 400.333 1031.57 395.844 1028.32 389.959C1025.09 384.049 1023.48 376.856 1023.48 368.38C1023.48 359.879 1025.09 352.673 1028.32 346.763C1031.57 340.853 1035.96 336.363 1041.49 333.295C1047.01 330.226 1053.23 328.692 1060.13 328.692C1067.01 328.692 1073.21 330.226 1078.73 333.295C1084.29 336.363 1088.69 340.853 1091.94 346.763C1095.19 352.673 1096.81 359.879 1096.81 368.38ZM1077.83 368.38C1077.83 363.35 1077.12 359.099 1075.7 355.628C1074.3 352.158 1072.27 349.529 1069.62 347.744C1066.99 345.958 1063.83 345.065 1060.13 345.065C1056.45 345.065 1053.29 345.958 1050.64 347.744C1047.99 349.529 1045.95 352.158 1044.52 355.628C1043.12 359.099 1042.42 363.35 1042.42 368.38C1042.42 373.41 1043.12 377.66 1044.52 381.131C1045.95 384.602 1047.99 387.23 1050.64 389.016C1053.29 390.801 1056.45 391.694 1060.13 391.694C1063.83 391.694 1066.99 390.801 1069.62 389.016C1072.27 387.23 1074.3 384.602 1075.7 381.131C1077.12 377.66 1077.83 373.41 1077.83 368.38Z" fill="white"/>
<path d="M1105.54 407.011V329.749H1137.28C1143.03 329.749 1147.99 330.792 1152.17 332.88C1156.37 334.942 1159.61 337.91 1161.88 341.783C1164.16 345.631 1165.3 350.196 1165.3 355.478C1165.3 360.835 1164.13 365.387 1161.81 369.134C1159.48 372.857 1156.18 375.699 1151.91 377.66C1147.63 379.597 1142.57 380.565 1136.71 380.565H1116.65V365.852H1133.26C1136.06 365.852 1138.4 365.487 1140.28 364.758C1142.18 364.004 1143.62 362.872 1144.59 361.363C1145.57 359.829 1146.05 357.867 1146.05 355.478C1146.05 353.088 1145.57 351.114 1144.59 349.555C1143.62 347.97 1142.18 346.788 1140.28 346.008C1138.38 345.204 1136.04 344.801 1133.26 344.801H1124.11V407.011H1105.54ZM1148.79 371.7L1167.92 407.011H1147.67L1128.91 371.7H1148.79Z" fill="white"/>
<path d="M1173.37 407.011V329.749H1191.94V362.419H1192.95L1218.34 329.749H1240.21L1212.98 364.23L1240.7 407.011H1218.49L1199.36 376.642L1191.94 386.073V407.011H1173.37Z" fill="white"/>
<path d="M414.495 446.578H982.941" stroke="url(#paint0_linear_361_369)" stroke-width="4.6028"/>
<path d="M992.147 462.583V431.619H997.62V443.201H997.847C998.129 442.636 998.527 442.036 999.041 441.401C999.555 440.756 1000.25 440.207 1001.13 439.753C1002 439.29 1003.12 439.058 1004.48 439.058C1006.28 439.058 1007.9 439.516 1009.34 440.434C1010.79 441.341 1011.94 442.686 1012.78 444.471C1013.64 446.245 1014.07 448.422 1014.07 451.002C1014.07 453.552 1013.65 455.719 1012.82 457.503C1011.98 459.287 1010.84 460.648 1009.4 461.586C1007.96 462.523 1006.32 462.992 1004.5 462.992C1003.17 462.992 1002.06 462.77 1001.19 462.326C1000.31 461.883 999.606 461.349 999.072 460.724C998.547 460.089 998.139 459.489 997.847 458.925H997.529V462.583H992.147ZM997.514 450.972C997.514 452.474 997.726 453.789 998.149 454.918C998.583 456.047 999.203 456.929 1000.01 457.564C1000.82 458.189 1001.81 458.501 1002.97 458.501C1004.18 458.501 1005.19 458.179 1006.01 457.534C1006.83 456.878 1007.44 455.986 1007.86 454.857C1008.28 453.719 1008.49 452.423 1008.49 450.972C1008.49 449.53 1008.28 448.25 1007.87 447.132C1007.46 446.013 1006.84 445.136 1006.03 444.501C1005.21 443.866 1004.19 443.548 1002.97 443.548C1001.8 443.548 1000.81 443.856 999.994 444.471C999.177 445.085 998.558 445.947 998.134 447.056C997.721 448.165 997.514 449.47 997.514 450.972Z" fill="white"/>
<path d="M1021.33 471.292C1020.59 471.292 1019.9 471.232 1019.26 471.111C1018.64 471 1018.14 470.869 1017.77 470.718L1019.04 466.454C1019.83 466.686 1020.54 466.797 1021.17 466.787C1021.79 466.777 1022.34 466.58 1022.82 466.197C1023.3 465.824 1023.71 465.199 1024.04 464.322L1024.51 463.067L1016.09 439.36H1021.89L1027.25 456.899H1027.49L1032.86 439.36H1038.68L1029.38 465.396C1028.94 466.625 1028.37 467.679 1027.65 468.556C1026.94 469.443 1026.06 470.118 1025.02 470.582C1024 471.055 1022.77 471.292 1021.33 471.292Z" fill="white"/>
<mask id="mask0_361_369" style="mask-type:luminance" maskUnits="userSpaceOnUse" x="1047" y="429" width="192" height="35">
<path d="M1238.67 429.665H1047.38V463.491H1238.67V429.665Z" fill="white"/>
</mask>
<g mask="url(#mask0_361_369)">
<path d="M1161.13 462.988H1156.65C1156.52 461.862 1156.4 460.744 1156.26 459.581C1156.2 459.644 1156.15 459.673 1156.13 459.712C1154.75 461.781 1152.77 462.905 1150.37 463.323C1144.53 464.343 1139.15 460.608 1137.99 454.718C1137.39 451.683 1137.53 448.696 1138.88 445.861C1140.44 442.579 1143.04 440.571 1146.61 439.929C1149.39 439.43 1152.02 439.855 1154.31 441.615C1154.94 442.101 1155.43 442.769 1155.99 443.357C1156.07 443.451 1156.14 443.562 1156.26 443.732C1156.41 442.631 1156.55 441.609 1156.69 440.587C1156.72 440.417 1156.7 440.234 1156.97 440.235C1158.35 440.242 1159.72 440.238 1161.12 440.238V462.988H1161.13ZM1156.27 451.526C1156.23 451.194 1156.2 450.735 1156.13 450.282C1155.55 446.253 1151.96 443.956 1148.68 444.437C1146.31 444.785 1144.58 445.992 1143.52 448.13C1142.71 449.775 1142.64 451.519 1142.92 453.307C1143.7 458.151 1149.29 460.547 1153.31 457.731C1155.41 456.26 1156.21 454.129 1156.27 451.524V451.526Z" fill="white"/>
<path d="M1214.05 451.687C1214.02 458.479 1208.89 463.524 1202.06 463.487C1195.28 463.45 1190.19 458.32 1190.23 451.551C1190.27 444.789 1195.44 439.711 1202.25 439.753C1208.98 439.794 1214.09 444.961 1214.05 451.687ZM1208.98 451.322C1208.88 450.809 1208.8 449.853 1208.5 448.972C1207.65 446.422 1205.88 444.827 1203.19 444.428C1200.65 444.052 1198.47 444.804 1196.87 446.858C1195.27 448.92 1194.98 451.301 1195.6 453.765C1196.98 459.214 1202.94 460.144 1206.28 457.518C1208.14 456.054 1208.89 454.058 1208.98 451.322Z" fill="white"/>
<path d="M1222.8 462.985H1217.73V440.268H1222.22C1222.36 441.379 1222.5 442.507 1222.66 443.709C1222.91 443.364 1223.12 443.061 1223.36 442.777C1224.74 441.088 1226.55 440.163 1228.69 439.852C1230.72 439.555 1232.67 439.86 1234.46 440.908C1236.61 442.165 1237.81 444.115 1238.32 446.495C1238.53 447.476 1238.64 448.497 1238.65 449.5C1238.69 453.885 1238.67 458.271 1238.66 462.658C1238.66 462.752 1238.66 462.844 1238.65 462.969H1233.53V462.439C1233.53 458.538 1233.53 454.639 1233.52 450.739C1233.52 449.686 1233.43 448.648 1233.08 447.634C1231.95 444.348 1228.28 443.581 1225.78 445.16C1223.66 446.492 1222.81 448.503 1222.8 450.923C1222.78 454.769 1222.8 458.616 1222.8 462.462V462.985Z" fill="white"/>
<path d="M1106.69 462.989H1102.2C1102.06 461.854 1101.92 460.725 1101.76 459.498C1101.61 459.719 1101.5 459.877 1101.39 460.033C1099.45 462.696 1096.78 463.723 1093.59 463.428C1089.49 463.049 1086.83 460.171 1086.16 456.163C1086.01 455.264 1085.96 454.338 1085.96 453.424C1085.94 449.199 1085.95 444.975 1085.95 440.75C1085.95 440.593 1085.95 440.436 1085.95 440.258H1091.09C1091.09 440.43 1091.09 440.587 1091.09 440.744C1091.09 444.712 1091.09 448.679 1091.09 452.648C1091.09 453.748 1091.22 454.822 1091.62 455.859C1092.77 458.859 1096.28 459.644 1098.69 458.092C1100.74 456.767 1101.59 454.794 1101.61 452.421C1101.63 448.939 1101.62 445.458 1101.62 441.975C1101.62 441.411 1101.62 440.847 1101.62 440.261H1106.69V462.989Z" fill="white"/>
<path d="M1062.82 462.979H1057.61V434.824H1047.38V429.982H1073.01V434.795H1062.82V462.979H1062.82Z" fill="white"/>
<path d="M1114.02 444.471H1109.6V440.241H1114C1114 439.415 1114 438.636 1114 437.857C1114 435.981 1114.4 434.217 1115.49 432.657C1116.63 431.031 1118.22 430.13 1120.15 429.8C1121.53 429.565 1122.89 429.647 1124.25 429.953C1124.37 429.981 1124.55 430.13 1124.55 430.224C1124.57 431.518 1124.56 432.811 1124.56 434.163C1124.38 434.147 1124.22 434.116 1124.07 434.123C1123.23 434.167 1122.36 434.118 1121.54 434.29C1120.14 434.585 1119.26 435.694 1119.14 437.23C1119.06 438.207 1119.12 439.195 1119.12 440.23H1125.48V444.451H1119.11V462.972H1114.02V444.471H1114.02Z" fill="white"/>
<path d="M1167.67 444.468H1163.59V440.256H1167.61V432.647H1172.76V440.233H1179.39V444.456H1172.82C1172.8 444.571 1172.77 444.647 1172.77 444.723C1172.77 448.151 1172.78 451.579 1172.79 455.006C1172.79 455.811 1172.94 456.594 1173.39 457.284C1173.96 458.163 1174.84 458.52 1175.83 458.61C1176.75 458.696 1177.68 458.675 1178.61 458.701C1178.72 458.704 1178.82 458.701 1178.95 458.701V462.888C1177.95 463.161 1176.92 463.316 1175.87 463.331C1174.12 463.355 1172.45 463.002 1170.98 462.023C1169.1 460.776 1168.11 458.965 1167.79 456.762C1167.7 456.124 1167.68 455.471 1167.68 454.826C1167.67 451.561 1167.67 448.295 1167.67 445.028V444.463L1167.67 444.468Z" fill="white"/>
<path d="M1128.77 429.964H1133.82V462.968H1128.77V429.964Z" fill="white"/>
<path d="M1082.66 444.765C1081.81 444.765 1080.98 444.722 1080.16 444.774C1077.86 444.921 1076.47 446.309 1076.27 448.637C1076.22 449.201 1076.2 449.768 1076.2 450.333C1076.19 454.381 1076.19 458.429 1076.19 462.477C1076.19 462.636 1076.19 462.794 1076.19 462.977H1071.09C1071.09 462.837 1071.09 462.696 1071.09 462.553C1071.09 457.898 1071.05 453.242 1071.1 448.588C1071.12 446.23 1071.79 444.064 1073.45 442.302C1074.85 440.823 1076.6 440.083 1078.59 439.836C1079.84 439.682 1081.07 439.757 1082.29 439.995C1082.57 440.048 1082.7 440.139 1082.7 440.46C1082.68 441.769 1082.69 443.078 1082.69 444.386C1082.69 444.492 1082.67 444.599 1082.66 444.767V444.765Z" fill="white"/>
<path d="M1182.22 440.253H1187.25V462.975H1182.22V440.253Z" fill="white"/>
<path d="M1181.46 432.936C1181.45 431.13 1182.89 429.712 1184.74 429.709C1186.57 429.706 1188.01 431.167 1188.01 433.012C1188 434.734 1186.54 436.156 1184.77 436.179C1182.93 436.203 1181.47 434.774 1181.46 432.936Z" fill="white"/>
</g>
<defs>
<linearGradient id="paint0_linear_361_369" x1="nan" y1="nan" x2="nan" y2="nan" gradientUnits="userSpaceOnUse">
<stop stop-color="white" stop-opacity="0"/>
<stop offset="1" stop-color="white"/>
</linearGradient>
</defs>
</svg>
